<?xml version="1.0" encoding="utf-8"?>
<!-- Generator: Adobe Illustrator 22.1.0, SVG Export Plug-In . SVG Version: 6.00 Build 0)  -->
<svg version="1.1" id="Layer_1" xmlns="http://www.w3.org/2000/svg" xmlns:xlink="http://www.w3.org/1999/xlink" x="0px" y="0px"
	 viewBox="0 0 1366 768" style="enable-background:new 0 0 1366 768;" xml:space="preserve">
<style type="text/css">
	.st0{fill:#FFFFFF;}
</style>
<g>
	<path class="st0" d="M617,667c-177.7,0-355.3,0-533,0c0-135.7,0-271.3,0-407c2.4,4.3,4,9.3,7.2,12.8c7,7.5,26.3,9.5,35.3,4.6
		c5-2.7,5.7-7,0.9-10.1c-4.1-2.6-9-4.1-13.7-5.8c-13.7-4.9-16.4-13.9-7.5-25.3c1.2-1.6,2.5-3.2,3.9-4.5c15.8-15.5,35-25.9,55-34.7
		c1.2-0.5,2.7,0,4.1,0c-0.1,1.4,0,2.9-0.3,4.2c-9.3,35.7-18.9,71.3-28.1,107.1c-2.6,10.2,0.2,19.8,5.7,28.6
		c3.1,5.1,7.7,8.2,13.6,9.3c11.4,2.2,21.2-2,29.8-8.5c7.1-5.4,13.4-12,19.9-18.1c5.7-5.4,6.8-5.7,12.3-0.3c6.6,6.3,14.5,8.5,23,6.5
		c17.5-4.1,32-12.7,38.9-30.3c4.6-11.8,8.8-23.7,11.7-36c9.1-38,17.3-76.2,26.1-114.3c3.2-14,10.8-24.6,25-29.3
		c0.9-0.3,2.1-0.6,2.7-1.3c1.8-2,4.5-4.1,4.6-6.3c0.1-1.5-3.4-3.3-5.5-4.8c-1-0.7-2.5-0.9-3.7-1.3c312.9,0,625.8,0,939,0
		c0,153.7,0,307.3,0,461c-0.3-0.4-0.7-0.8-0.8-1.2c-6.6-29.7-24.4-51.1-50.1-66c-9.4-5.5-20-9-29.9-13.6c-5.7-2.7-11.4-5.5-16.6-9
		c-1.7-1.1-3-4.6-2.6-6.6c1.2-4.9,5.4-7,10.4-5.8c2.9,0.7,5.7,1.7,8.5,2.8c7.7,3.1,15.3,6.7,23,9.5c8.8,3.3,16.5,1.5,23.3-5.3
		c6.3-6.3,8.9-13.9,9.6-22.4c1.6-19.5-8-33.8-22.4-44.9c-24.5-18.8-52.6-23.8-82.3-16.6c-37.6,9.1-62.6,41.8-63.6,83.3
		c-0.9,37.4,20.3,68.2,57.4,80.6c8.9,3,17.6,6.9,26.1,11c3.1,1.5,5.8,4.4,8.1,7.2c2.7,3.3,2.5,7.3,0.3,10.8c-2.1,3.3-5.5,4-9.2,3.4
		c-9.6-1.5-18.6-4.6-27.1-9.7c-5.8-3.5-11.9-6.7-18.3-8.9c-9.5-3.2-18.3-1.1-24.9,6.8c-17.7,21-22.2,56.9,6.2,79.7
		c8.9,7.1,19.1,11.4,30.2,13.7c7.6,1.6,15.1,3.3,22.7,5c-179.3,0-358.7,0-538,0c1.6-0.4,3.2-0.9,4.8-1.1
		c16.6-2.1,28.9-9.3,32.7-27.1c1-4.7,2.9-9.2,4.3-13.8c1.2-4.1,3.7-6.4,7.9-6.2c11.5,0.4,22.9,0.9,34.4,1.6c5,0.3,8.1,3.5,9.6,8.3
		c1.9,6,3.5,12.1,5.5,18.1c3.8,11.6,10.1,16.6,22.4,17c9.5,0.4,19,0.3,28.5-0.1c10.5-0.4,21-0.9,31.4-2c11.6-1.2,16.1-6.7,15.4-18.4
		c-0.3-5.1-1.2-10.3-2.7-15.2c-18.2-59.8-36.4-119.6-54.9-179.3c-4.6-14.9-10.5-29.4-15.9-44.1c-4.3-11.7-12.7-19-25.3-19.3
		c-19.5-0.5-39-0.5-58.4,0.1c-17.7,0.5-28.9,10.7-34.8,26.9c-3.6,9.8-6.7,19.8-9.6,29.9c-10.4,36.1-20.1,72.4-30.9,108.4
		c-8.6,28.7-18.4,56.9-27.3,85.5c-3.6,11.4,1.2,20.7,12.3,24.8c4.3,1.6,9,2.2,13.6,2.8C596.8,665.1,606.9,666,617,667z M436.7,220.1
		c0.5,0,1,0,1.5,0c0,21-0.4,42,0.1,63c0.4,16.5,1.6,32.9,2.9,49.4c1.3,15.8,7.4,22.4,21.3,23.5c33.1,2.5,66.3,2.3,99.4-0.3
		c6.6-0.5,13.6-1.1,19.5-3.8c20.7-9.3,35-24.8,40.5-47.1c6.8-27.3-1.5-51.3-18.4-72.8c-12.8-16.3-12.5-10.6-3.3-29
		c18.7-37.6-3.1-84.3-44.1-93.9c-20.8-4.9-42.1-4.6-63.2-3.6c-14.6,0.7-29.1,2.7-43.6,4.9c-8,1.2-10,4.2-10.2,12.3
		C438.2,155.1,437.5,187.6,436.7,220.1z M879.5,236c0.6,0,1.1,0,1.7,0c0,25-0.3,50,0.1,75c0.2,12.3,1.7,24.6,2.7,36.9
		c0.4,5.5,3.6,8.3,8.9,9.1c13.8,2,27.6,2,41.3-0.4c6.7-1.1,9.4-3.8,9.8-10.7c0.7-12,0.7-24,1-35.9c0.1-6.3-0.2-12.7,0.2-19
		c0.1-1.4,2-3.7,3-3.7c14.6-0.3,27.5,2.9,34.8,17.4c0.7,1.5,1.8,2.8,2.6,4.2c7,11.5,14.1,23,21,34.6c5.9,9.8,14.4,14.9,26,14.6
		c10-0.2,20,0.1,30-0.3c4.8-0.2,9.6-1.1,14.1-2.6c6.1-2.1,7.9-7,5.2-12.8c-1.8-3.9-3.8-7.8-6.2-11.4c-11.6-17.3-23.3-34.5-35-51.7
		c-3.9-5.8-3.8-7.1,0.6-12.3c2.1-2.4,4.3-4.6,6.4-7c23.8-27.5,30.9-58.9,18.9-93.1c-11.1-31.9-33.8-52.1-68.3-54.6
		c-28.4-2-56.9-1.5-85.4-1.6c-7.4,0-14.9,1.5-22.3,2.5c-4.6,0.6-7,3.6-7.5,8.1c-0.7,7.1-1.7,14.2-1.9,21.4
		C880.5,173.7,880.1,204.9,879.5,236z M1175.6,357.9c0-0.4,0-0.8,0-1.2c11,0,22,0.4,33-0.1c12.3-0.5,24.6-1.2,36.8-2.9
		c9.8-1.4,13.8-6.7,13.7-16.5c-0.1-9.3-0.5-18.7-1.2-27.9c-0.7-8.8-5.2-13.5-13.9-15.3c-3.7-0.7-7.6-1.1-11.4-1.1
		c-17.5-0.3-35-0.4-52.5-0.8c-9.9-0.2-10.5-1-10.6-10.6c0-1.8,0.2-3.7,0-5.5c-0.4-5,1.7-7.1,6.9-7.3c10.6-0.3,21.3-0.9,31.9-1.7
		c8.1-0.6,13-4.6,13.7-12.6c0.9-12.1,1.1-24.3,0.7-36.4c-0.2-6.7-4.7-11.4-11.5-12.8c-4.9-1-9.9-1.5-14.8-2
		c-7.6-0.7-15.3-1.2-22.9-1.7c-3.7-0.2-5.3-2.2-5.4-5.8c-0.2-5.2-0.6-10.3-0.8-15.5c-0.2-8.4,1.1-10.1,9.6-10.3
		c20.1-0.5,40.3-0.6,60.5-1.1c4.6-0.1,9.3-0.9,13.8-2c6-1.5,9.7-5.8,9.8-11.8c0.3-10.8,0-21.6-0.6-32.4c-0.5-8.3-5.7-13.1-13.6-14.4
		c-7.7-1.2-15.5-2-23.3-2.1c-26-0.3-52-0.3-78-0.2c-9.8,0-19.6,0.5-29.4,1.2c-6.8,0.5-9.3,3.5-9.9,10.2c-0.3,3.5-0.7,7-0.8,10.5
		c-0.3,60.3-0.6,120.6-0.8,180.9c0,10.7,0.6,21.3,0.9,32c0.1,2.6-0.7,5.4,0.1,7.7c2.3,6.9,7.7,9.5,14.7,9.5
		C1138.6,357.9,1157.1,357.9,1175.6,357.9z M829.1,357.1c0,0.2,0,0.3,0.1,0.5c7.8-0.9,15.6-1.4,23.3-2.6c13.7-2.1,14.1-5.8,8.9-16.4
		c-30.3-61.3-60.6-122.6-91.1-183.8c-5.4-10.9-11.1-21.6-17-32.2c-3.9-7-9-7.9-15-2.5c-3.3,2.9-6.6,6.3-8.9,10
		c-7.9,13.3-16.3,26.4-22.9,40.3c-20.8,43.5-40.9,87.4-61.1,131.2c-6.4,13.7-12.7,27.5-18.5,41.5c-3.9,9.4-1.7,13.2,8.4,13.9
		c11.9,0.8,23.9,0.6,35.9,1.1c11.4,0.5,19.5-4.3,23.3-14.9c3-8.3,8.8-10.4,16.6-10.3c24.5,0.4,49,0.7,73.4,0.9
		c7.3,0,12.5,2.4,16,9.4c5,9.9,13.2,15.2,24.8,14C826.5,357,827.8,357.1,829.1,357.1z M401.2,184.5c0.2-21-15.4-32.2-35.2-25.2
		c-9.7,3.4-17.4,9.8-23.3,18.1c-10,14.2-16.1,30.1-19.6,47.1c-2.6,12.3-2.8,24.5,2,36.3c5.5,13.5,18.5,23.2,31.5,21.9
		c20.8-2.1,37.9-11.9,51.1-28.1c1.7-2.1,2.8-5,3.1-7.7c0.3-2.2-0.4-5.6-1.9-6.6c-1.5-0.9-5-0.1-6.7,1.2c-4,2.9-7.5,6.5-11.1,10
		c-7.7,7.3-15.9,13.7-26.6,16.1c-12.4,2.8-21.5-3.9-22.6-16.6c-0.3-3.1,0-6.3-0.2-9.5c-0.3-5.3,2.3-7.7,7.3-8.8
		c7.6-1.6,15.3-3.2,22.6-5.9C391.3,219.6,401,205.4,401.2,184.5z M942.8,575.7c1.3,4.6,2.6,8.1,3.3,11.8c2.1,10.6,3.4,21.4,6.3,31.8
		c4.7,17.3,13.6,31.8,30.4,40.1c10.3,5.1,21.3,6,32.6,5.6c28.4-1,58.1-25.5,64.1-53.3c2.3-10.6,0.7-20.5-6.6-29.1
		c-3.4-3.9-7.4-6.2-12.7-5.5c-4.3,0.6-8.6,1.2-12.7,2.4c-4.5,1.3-7.4-0.3-9.9-3.7c-7.1-9.8-8.3-30.5,0.4-40.4
		c6.8-7.7,10.8-17.1,13.1-27.2c4.7-20.5,1.7-40.3-4.8-59.9c-11.5-34.5-35.4-54.9-70.6-62c-29.6-5.9-59.5-7.5-89.4-2.8
		c-11.9,1.9-23.6,5.2-35.1,8.9c-7,2.2-10.7,8.1-10.9,15.8c-0.2,7.5-1,15-0.9,22.5c0.6,58,1.2,116,2.2,173.9
		c0.3,16,1.7,31.9,2.8,47.9c0.6,9.1,2.5,10.6,11.5,11.6c11.2,1.3,22.4,1.1,33.5,0.5c12.6-0.6,25.3-1.5,37.8-2.8
		c9.8-1,12.6-4.5,12.7-14.4c0-4.3-0.2-8.7-0.5-13c-0.7-13.1-1.7-26.3-2.2-39.4C936.9,588.5,938.1,582.2,942.8,575.7z M453,664.7
		c0-0.5,0-0.9,0-1.4c10.5,0,21,0.2,31.5,0c13.5-0.3,27-0.4,40.4-1.5c9.1-0.8,14.4-5.8,14.9-14.8c0.9-14.6,1.2-29.3,0.2-43.9
		c-0.8-11.6-6.2-16.4-17.7-17c-15.6-0.8-31.3-0.7-46.9-1c-13.9-0.2-15.2-1.6-14.2-15.4c0.7-8.9,0.7-9,9.6-9.5
		c10.5-0.6,21-0.7,31.5-1.4c11.3-0.8,17.5-5.7,18.3-16.1c1.1-13.1,1.5-26.3,1-39.4c-0.5-12.5-7.4-18.4-19.9-19.2
		c-1.2-0.1-2.3-0.1-3.5-0.1c-8.2-0.3-16.3-0.5-24.5-0.9c-8.2-0.4-9.5-1.7-9.8-9.8c-0.1-3.2-0.2-6.3-0.3-9.5c-0.2-3.9,1.5-6,5.5-5.9
		c3.3,0,6.7-0.2,10-0.1c13.5,0.3,27,1.1,40.5,1c14.5-0.1,22.1-6.4,22.8-20.4c0.7-12.9-0.6-25.9-1.8-38.8
		c-0.6-6.5-5.3-10.8-11.7-12.3c-5.2-1.2-10.5-2.1-15.8-2.2c-35.2-0.3-70.3-0.6-105.5-0.4c-9.8,0-19.6,1-29.3,2.4
		c-12.7,1.9-19.8,10.1-22,22.6c-0.7,3.9-1.2,7.9-1.2,11.9c0.7,52.6,1.2,105.3,2.3,157.9c0.4,18.8,1.9,37.6,3.7,56.3
		c1.8,18.5,13.3,28.5,31.9,28.7C413.1,664.8,433,664.7,453,664.7z M116.5,517.4c0.6,0,1.2,0,1.9,0c0,21.7-0.3,43.3,0.1,65
		c0.3,17,1.2,34,2.7,50.9c1.6,18.7,10.7,27.5,29.6,28.6c24.9,1.4,49.9,2.6,74.9,2.8c20.8,0.2,41.4-2.5,61.3-9.6
		c27.5-9.9,52.2-42.7,49.9-74.3c-1.5-19.7-7.3-37.4-21.6-51.8c-6.9-6.9-6.8-7.8,0.3-14.8c7.4-7.3,12.5-15.9,15.5-25.8
		c3.7-12,4.2-24.1,2.9-36.6c-3.7-36.2-25.8-60.2-61.5-66.7c-35.5-6.5-71.2-7-107-5.5c-10.4,0.4-20.7,2.7-31,4.7
		c-6.8,1.3-11.3,5.9-12.5,12.8c-1.6,8.3-3.4,16.7-3.6,25.1C117.4,453.8,117,485.6,116.5,517.4z M269.4,356.2
		c15.4-2.6,31.1-4.1,46.1-8.2c20.1-5.6,39.8-12.8,59.4-20.2c7.8-2.9,14.8-8.1,21.8-12.7c1.6-1.1,3.1-5,2.3-6.2
		c-1.1-1.8-4.2-3.1-6.5-3.4c-3.1-0.3-6.3,0.5-9.4,1c-37.3,6.9-72.8,19.6-107.7,34.1c-3.7,1.5-6.9,4.6-9.8,7.4
		c-1.2,1.1-1.9,3.9-1.3,5.3C264.9,354.6,267.4,355.1,269.4,356.2z"/>
	<path class="st0" d="M84,249c0-49,0-98,0-147c82.7,0,165.3,0,248,0c-8.2,1.8-15.6,4.8-19.7,12.9c-1.9,3.7-4,7.4-5.1,11.4
		c-4.9,17.4-9.8,34.9-14.1,52.5c-7.9,32.3-15,64.8-23.2,97.1c-2.2,8.5-6.3,16.8-10.6,24.5c-3.5,6.2-15.2,8.5-21.7,5.2
		c-6.4-3.3-4.5-9.6-4.5-15.2c0-0.5,0.1-1,0.2-1.5c4.7-21.1,9.2-42.2,14-63.3c4.9-21.4,10.2-42.7,15-64.1c2.1-9.5-2.2-13.3-10.8-10
		c-2.5,0.9-5,3.6-6.2,6.1c-2.5,5.2-4.7,10.7-6.2,16.3c-6.6,24.4-12.7,48.9-19.3,73.3c-4.7,17.3-9.3,34.7-14.9,51.7
		c-4.4,13.3-15,21.4-27.6,26.6c-9.4,3.9-16.8-1-17.6-11.1c-0.3-4.4-0.4-9.1,0.8-13.4c8.8-32.6,17.7-65.1,26.9-97.6
		c4.5-16.1,10.3-31.7,23.4-43.3c0.7-0.6,1.5-1.5,1.7-2.4c0.6-2.7,2.1-6.4,1-8c-1.2-1.7-5.4-2.3-7.9-1.8c-7.9,1.5-13.8,6.7-19.9,11.8
		c-8.4,6.9-17.1,13.8-26.3,19.6c-13.4,8.3-27.8,15.1-41.3,23.3c-17.4,10.6-30.6,24.6-33.6,45.9C84.6,248.5,84.2,248.8,84,249z"/>
	<path d="M84,249c0.2-0.2,0.6-0.5,0.6-0.7c3-21.3,16.2-35.3,33.6-45.9c13.5-8.2,27.8-15,41.3-23.3c9.3-5.7,17.9-12.6,26.3-19.6
		c6.1-5,12-10.2,19.9-11.8c2.6-0.5,6.7,0.1,7.9,1.8c1.2,1.6-0.4,5.3-1,8c-0.2,0.9-1,1.8-1.7,2.4c-13.1,11.6-18.9,27.2-23.4,43.3
		c-9.2,32.5-18.1,65-26.9,97.6c-1.1,4.2-1.1,8.9-0.8,13.4c0.8,10.1,8.1,14.9,17.6,11.1c12.6-5.1,23.2-13.3,27.6-26.6
		c5.7-17,10.3-34.4,14.9-51.7c6.6-24.4,12.7-48.9,19.3-73.3c1.5-5.6,3.7-11.1,6.2-16.3c1.2-2.5,3.7-5.1,6.2-6.1
		c8.6-3.3,12.9,0.6,10.8,10c-4.7,21.4-10.1,42.7-15,64.1c-4.8,21.1-9.4,42.2-14,63.3c-0.1,0.5-0.2,1-0.2,1.5c0,5.5-2,11.8,4.5,15.2
		c6.5,3.4,18.2,1,21.7-5.2c4.4-7.7,8.5-16,10.6-24.5c8.2-32.2,15.3-64.7,23.2-97.1c4.3-17.6,9.2-35,14.1-52.5
		c1.1-4,3.3-7.6,5.1-11.4c4-8.1,11.5-11.1,19.7-12.9c4.3,0,8.7,0,13,0c1.2,0.4,2.7,0.6,3.7,1.3c2.1,1.4,5.6,3.3,5.5,4.8
		c-0.1,2.2-2.9,4.3-4.6,6.3c-0.6,0.7-1.7,1-2.7,1.3c-14.2,4.7-21.8,15.3-25,29.3c-8.8,38.1-17,76.3-26.1,114.3
		c-2.9,12.2-7.2,24.2-11.7,36c-6.8,17.6-21.3,26.3-38.9,30.3c-8.6,2-16.4-0.2-23-6.5c-5.6-5.3-6.6-5-12.3,0.3
		c-6.5,6.2-12.8,12.8-19.9,18.1c-8.6,6.5-18.4,10.8-29.8,8.5c-5.9-1.1-10.5-4.2-13.6-9.3c-5.4-8.8-8.3-18.4-5.7-28.6
		c9.2-35.7,18.7-71.4,28.1-107.1c0.4-1.4,0.2-2.8,0.3-4.2c-1.4,0-3-0.5-4.1,0c-20.1,8.8-39.2,19.2-55,34.7c-1.4,1.4-2.7,3-3.9,4.5
		c-8.9,11.4-6.1,20.4,7.5,25.3c4.7,1.7,9.5,3.2,13.7,5.8c4.8,3,4.2,7.3-0.9,10.1c-9,4.9-28.3,2.9-35.3-4.6
		c-3.3-3.5-4.9-8.5-7.2-12.8C84,256.3,84,252.7,84,249z"/>
	<path d="M1162,667c-7.6-1.7-15.1-3.4-22.7-5c-11.1-2.3-21.3-6.6-30.2-13.7c-28.3-22.7-23.9-58.7-6.2-79.7c6.6-7.8,15.4-10,24.9-6.8
		c6.4,2.2,12.5,5.4,18.3,8.9c8.4,5,17.4,8.2,27.1,9.7c3.8,0.6,7.1-0.1,9.2-3.4c2.2-3.5,2.4-7.5-0.3-10.8c-2.3-2.8-4.9-5.7-8.1-7.2
		c-8.5-4.1-17.2-8-26.1-11c-37.1-12.4-58.3-43.2-57.4-80.6c0.9-41.5,26-74.2,63.6-83.3c29.7-7.2,57.8-2.2,82.3,16.6
		c14.4,11.1,24,25.4,22.4,44.9c-0.7,8.5-3.3,16.1-9.6,22.4c-6.8,6.8-14.5,8.5-23.3,5.3c-7.8-2.9-15.3-6.4-23-9.5
		c-2.8-1.1-5.6-2.2-8.5-2.8c-5-1.2-9.2,0.8-10.4,5.8c-0.5,1.9,0.9,5.5,2.6,6.6c5.2,3.4,10.9,6.3,16.6,9c9.9,4.7,20.5,8.2,29.9,13.6
		c25.7,14.9,43.5,36.3,50.1,66c0.1,0.4,0.5,0.8,0.8,1.2c0,10,0,20,0,30c-0.3,0.8-0.7,1.5-1,2.3c-10.2,37.8-34.3,60.8-73.1,67.7
		c-8.9,1.6-18,2.7-27,4C1176,667,1169,667,1162,667z M1175.9,385.7c-37.6-0.3-68.2,23.1-78.2,61.6c-8.9,34.3,3.5,68.7,32,86.6
		c8.3,5.2,18.1,8.3,27.3,12c9.3,3.7,18.8,7,26.2,14.1c5.5,5.2,6.8,12.9,3.6,18.7c-2.9,5.2-8.4,7-16.2,5.6
		c-10.1-1.8-19.4-5.7-28.2-11c-5.2-3.2-11-5.6-16.7-7.5c-7.5-2.5-14.4-0.3-19.4,5.8c-9.4,11.4-14.2,24.6-12.7,39.4
		c2.3,22.9,16.4,36.8,37.2,43.7c11.9,3.9,24.5,6.8,36.9,7.6c12,0.8,24.2-1.4,36.2-2.8c13.5-1.5,26.6-5,38.1-12.5
		c44.1-29,51.4-85.7,16.3-125.2c-14.3-16.1-32.3-26.3-52.2-33.8c-7.3-2.7-14.3-6.3-21-10.3c-6.1-3.7-7.4-8.1-5.1-12.9
		c3.2-6.9,8.4-9.8,15.2-8.1c3.2,0.8,6.4,1.9,9.4,3.2c6.8,2.7,13.3,6,20.2,8.4c14.1,4.8,24.5-1,28.3-15.6
		c5.2-19.8-3.3-34.8-17.7-47.1C1219,391.6,1199.6,385.7,1175.9,385.7z"/>
	<path d="M617,667c-10.1-1-20.2-1.9-30.2-3.1c-4.6-0.6-9.3-1.2-13.6-2.8c-11.1-4.2-15.8-13.5-12.3-24.8
		c8.9-28.5,18.7-56.8,27.3-85.5c10.7-36,20.5-72.3,30.9-108.4c2.9-10.1,6.1-20.1,9.6-29.9c5.9-16.2,17-26.3,34.8-26.9
		c19.5-0.6,39-0.6,58.4-0.1c12.6,0.3,21,7.6,25.3,19.3c5.4,14.7,11.3,29.2,15.9,44.1c18.6,59.7,36.8,119.5,54.9,179.3
		c1.5,4.9,2.4,10.1,2.7,15.2c0.7,11.7-3.9,17.2-15.4,18.4c-10.4,1.1-20.9,1.6-31.4,2c-9.5,0.3-19,0.4-28.5,0.1
		c-12.3-0.5-18.6-5.4-22.4-17c-2-6-3.7-12.1-5.5-18.1c-1.5-4.7-4.5-8-9.6-8.3c-11.4-0.7-22.9-1.2-34.4-1.6c-4.2-0.1-6.8,2.2-7.9,6.2
		c-1.3,4.6-3.3,9.1-4.3,13.8c-3.8,17.8-16.1,25-32.7,27.1c-1.6,0.2-3.2,0.7-4.8,1.1C621.7,667,619.3,667,617,667z M775.6,659.1
		c0,0.1,0,0.3,0,0.4c10.3-0.8,20.6-1.1,30.8-2.5c8.2-1.1,11.3-6,10.2-14.1c-0.6-4.3-1.2-8.6-2.5-12.7
		c-17.2-56.7-34.2-113.5-51.8-170c-5.8-18.7-13-37-19.8-55.3c-3.5-9.5-10.7-14.9-20.9-15c-19.5-0.2-38.9-0.3-58.4,0.2
		c-13.3,0.4-23.2,7.2-28.3,19.6c-3.8,9.2-7.2,18.6-9.9,28.2c-9.3,32.8-17.3,66-27.4,98.6c-10.2,33-23.6,65.1-31.8,98.8
		c-0.8,3.2-1.5,6.6-1.2,9.8c0.9,7.7,7.7,12.8,17.9,13.8c8.9,0.9,18,1.1,26.9,2.3c9.8,1.3,19.1,0.6,28.6-2c8.5-2.3,14.1-7.2,17-15.4
		c2.3-6.4,4.4-12.9,6.3-19.4c2-6.9,6.6-10.4,13.5-10.3c11,0.2,21.9,0.9,32.9,1.6c7.5,0.5,12.2,4.7,14.4,11.9
		c1.9,6.2,3.8,12.4,5.7,18.6c2.4,7.9,7.7,12.5,15.9,12.8C754.3,659.4,765,659.1,775.6,659.1z"/>
	<path class="st0" d="M1183,667c9-1.3,18-2.4,27-4c38.8-7,62.8-29.9,73.1-67.7c0.2-0.8,0.6-1.5,1-2.3c0,24.7,0,49.3,0,74
		C1250.3,667,1216.7,667,1183,667z"/>
	<path d="M436.7,220.1c0.8-32.5,1.5-65,2.4-97.4c0.2-8.1,2.2-11.1,10.2-12.3c14.4-2.2,29-4.2,43.6-4.9c21.1-1,42.4-1.3,63.2,3.6
		c40.9,9.6,62.8,56.3,44.1,93.9c-9.2,18.4-9.5,12.6,3.3,29c16.9,21.5,25.1,45.5,18.4,72.8c-5.5,22.3-19.8,37.9-40.5,47.1
		c-5.9,2.6-12.9,3.3-19.5,3.8c-33.1,2.6-66.2,2.8-99.4,0.3c-13.8-1-20-7.6-21.3-23.5c-1.3-16.4-2.5-32.9-2.9-49.4
		c-0.5-21-0.1-42-0.1-63C437.7,220.1,437.2,220.1,436.7,220.1z M522.9,258.6c-5.2,0.4-9.5,0.6-13.8,1c-3.4,0.3-5.1,2.3-5.2,5.6
		c-0.1,7.5-0.4,15,0.1,22.4c0.6,7.6,4.2,10.5,11.9,10.4c4.3-0.1,8.7-0.5,12.8-1.7c6.2-1.7,12.6-3.4,18-6.6c7-4.3,7.3-11.8,5.9-19.2
		c-1.3-6.7-6.4-9-12.3-9.9C534.3,259.6,528.1,259.2,522.9,258.6z M516.6,164.1c0,0.2,0,0.5,0,0.7c-3.7,0-7.4-0.4-11,0.2
		c-1.6,0.2-4.1,2.4-4.1,3.7c-0.2,8.6,0,17.3,0.6,25.9c0.1,1.5,2.7,4,4.1,4c10.5,0,21-0.4,30.6-5.3c5.9-3.1,7.9-8.1,6.8-15.2
		c-1.1-7.3-3.7-10.6-10.7-12C527.5,165,522,164.7,516.6,164.1z"/>
	<path d="M879.5,236c0.6-31.2,1-62.3,1.7-93.5c0.2-7.1,1.1-14.3,1.9-21.4c0.5-4.5,2.9-7.4,7.5-8.1c7.4-1,14.9-2.6,22.3-2.5
		c28.5,0.1,57-0.4,85.4,1.6c34.5,2.5,57.2,22.7,68.3,54.6c12,34.2,4.9,65.6-18.9,93.1c-2.1,2.4-4.3,4.6-6.4,7
		c-4.4,5.2-4.5,6.5-0.6,12.3c11.6,17.3,23.4,34.4,35,51.7c2.4,3.6,4.4,7.5,6.2,11.4c2.7,5.8,0.8,10.8-5.2,12.8
		c-4.5,1.5-9.4,2.4-14.1,2.6c-10,0.4-20,0.1-30,0.3c-11.7,0.3-20.1-4.8-26-14.6c-7-11.5-14-23-21-34.6c-0.9-1.4-1.9-2.8-2.6-4.2
		c-7.3-14.5-20.2-17.7-34.8-17.4c-1.1,0-3,2.4-3,3.7c-0.3,6.3-0.1,12.7-0.2,19c-0.2,12-0.3,24-1,35.9c-0.4,6.9-3.1,9.6-9.8,10.7
		c-13.7,2.3-27.5,2.4-41.3,0.4c-5.3-0.8-8.5-3.6-8.9-9.1c-0.9-12.3-2.4-24.6-2.7-36.9c-0.4-25-0.1-50-0.1-75
		C880.6,236,880.1,236,879.5,236z M947,200c0.6,6.2,1.2,12.3,1.7,18.4c0.3,3.3,2.2,4.5,5.3,4.7c12.6,0.8,24.9-0.8,36.7-5.5
		c7.1-2.8,12.3-7.8,14.7-15.3c3.2-10-1.6-20-11.6-23c-12.5-3.8-25.3-5.6-38.3-5.5c-3.9,0-5.9,1.7-6.3,5.4
		C948.4,186.2,947.8,193.1,947,200z"/>
	<path d="M1175.6,357.9c-18.5,0-37-0.1-55.5,0c-7.1,0-12.4-2.5-14.7-9.5c-0.8-2.3,0-5.1-0.1-7.7c-0.3-10.7-0.9-21.3-0.9-32
		c0.2-60.3,0.5-120.6,0.8-180.9c0-3.5,0.4-7,0.8-10.5c0.6-6.7,3.1-9.7,9.9-10.2c9.8-0.7,19.6-1.2,29.4-1.2c26-0.1,52-0.1,78,0.2
		c7.8,0.1,15.6,0.9,23.3,2.1c7.9,1.2,13.1,6.1,13.6,14.4c0.6,10.8,0.9,21.6,0.6,32.4c-0.1,6-3.8,10.4-9.8,11.8
		c-4.5,1.1-9.2,1.9-13.8,2c-20.1,0.5-40.3,0.6-60.5,1.1c-8.5,0.2-9.8,2-9.6,10.3c0.1,5.2,0.6,10.3,0.8,15.5c0.1,3.6,1.8,5.5,5.4,5.8
		c7.6,0.5,15.3,1,22.9,1.7c5,0.4,9.9,1,14.8,2c6.8,1.4,11.3,6.1,11.5,12.8c0.4,12.1,0.3,24.3-0.7,36.4c-0.6,8-5.5,12-13.7,12.6
		c-10.6,0.8-21.3,1.4-31.9,1.7c-5.1,0.2-7.3,2.3-6.9,7.3c0.1,1.8-0.1,3.7,0,5.5c0.1,9.6,0.7,10.4,10.6,10.6
		c17.5,0.4,35,0.5,52.5,0.8c3.8,0.1,7.7,0.4,11.4,1.1c8.7,1.7,13.2,6.5,13.9,15.3c0.7,9.3,1.2,18.6,1.2,27.9
		c0.1,9.9-3.9,15.2-13.7,16.5c-12.2,1.7-24.5,2.4-36.8,2.9c-11,0.5-22,0.1-33,0.1C1175.6,357.2,1175.6,357.5,1175.6,357.9z"/>
	<path d="M829.1,357.1c-1.3,0-2.7-0.1-4,0c-11.6,1.2-19.8-4.1-24.8-14c-3.5-7-8.6-9.3-16-9.4c-24.5-0.2-49-0.5-73.4-0.9
		c-7.8-0.1-13.6,2-16.6,10.3c-3.8,10.6-12,15.4-23.3,14.9c-12-0.5-24-0.3-35.9-1.1c-10-0.7-12.3-4.4-8.4-13.9
		c5.8-14,12.1-27.7,18.5-41.5c20.3-43.8,40.4-87.6,61.1-131.2c6.6-13.9,15-27,22.9-40.3c2.3-3.8,5.6-7.1,8.9-10
		c6.1-5.4,11.2-4.5,15,2.5c5.9,10.6,11.6,21.4,17,32.2c30.4,61.2,60.7,122.5,91.1,183.8c5.2,10.6,4.8,14.2-8.9,16.4
		c-7.7,1.2-15.5,1.8-23.3,2.6C829.2,357.4,829.2,357.3,829.1,357.1z M768.9,274.8c0.4-0.6,0.8-1.3,1.2-1.9
		c-7.9-15.7-15.7-31.4-23.6-47.1c-0.6,0.1-1.2,0.3-1.8,0.4c-8.6,15.6-15.7,31.7-20.8,50.5C739.9,276,754.4,275.4,768.9,274.8z"/>
	<path d="M401.2,184.5c-0.2,20.8-9.9,35.1-29.5,42.4c-7.3,2.7-15,4.3-22.6,5.9c-5.1,1.1-7.7,3.4-7.3,8.8c0.2,3.2,0,6.3,0.2,9.5
		c1.1,12.6,10.3,19.3,22.6,16.6c10.6-2.4,18.9-8.8,26.6-16.1c3.6-3.4,7.1-7,11.1-10c1.7-1.3,5.2-2.1,6.7-1.2
		c1.5,0.9,2.1,4.4,1.9,6.6c-0.3,2.7-1.4,5.6-3.1,7.7c-13.2,16.2-30.3,25.9-51.1,28.1c-13,1.3-26.1-8.4-31.5-21.9
		c-4.8-11.9-4.6-24.1-2-36.3c3.5-17,9.7-32.9,19.6-47.1c5.9-8.3,13.5-14.7,23.3-18.1C385.8,152.3,401.4,163.6,401.2,184.5z
		 M383.5,185.1c-1.8-3.3-2.9-7.5-5.6-9.7c-3.7-3-8-0.3-11.3,2.2c-2.2,1.7-4.3,3.7-6.1,5.9c-7,8.5-11.4,18.3-13.8,29
		c-1.7,7.6,1.6,10.8,9.2,8.8C370.5,217.5,382.2,201.8,383.5,185.1z"/>
	<path d="M942.8,575.7c-4.7,6.5-5.8,12.8-5.6,19.3c0.5,13.1,1.4,26.3,2.2,39.4c0.2,4.3,0.5,8.7,0.5,13c-0.1,9.9-2.9,13.4-12.7,14.4
		c-12.6,1.3-25.2,2.2-37.8,2.8c-11.2,0.6-22.4,0.7-33.5-0.5c-9-1-10.9-2.4-11.5-11.6c-1.1-16-2.6-31.9-2.8-47.9
		c-1-58-1.6-116-2.2-173.9c-0.1-7.5,0.7-15,0.9-22.5c0.2-7.7,3.9-13.6,10.9-15.8c11.5-3.6,23.3-7,35.1-8.9
		c29.9-4.7,59.9-3.1,89.4,2.8c35.1,7,59.1,27.5,70.6,62c6.5,19.6,9.5,39.4,4.8,59.9c-2.3,10.1-6.3,19.4-13.1,27.2
		c-8.7,9.9-7.4,30.7-0.4,40.4c2.5,3.4,5.4,5,9.9,3.7c4.1-1.2,8.4-1.8,12.7-2.4c5.3-0.7,9.3,1.6,12.7,5.5c7.4,8.5,8.9,18.5,6.6,29.1
		c-6,27.8-35.7,52.3-64.1,53.3c-11.3,0.4-22.3-0.4-32.6-5.6c-16.7-8.4-25.7-22.9-30.4-40.1c-2.8-10.4-4.1-21.2-6.3-31.8
		C945.4,583.8,944.1,580.3,942.8,575.7z M844,524.4c0.4,0,0.8,0,1.2,0c0,20.7-0.4,41.3,0.1,62c0.6,21.5,2,42.9,3.4,64.4
		c0.6,8.4,1,8.8,9.6,9c14.7,0.3,29.3,0.5,44,0c8.9-0.3,17.9-1.7,26.8-2.7c3.9-0.4,6.1-2.6,6-6.6c-0.2-8.5-0.4-17-0.7-25.4
		c-0.4-11.6-1.5-23.3-1.2-34.9c0.1-5.2,2.5-10.6,4.8-15.5c2.5-5.1,6-4.8,8.5,0.4c1.5,3.1,2.6,6.5,3.3,9.9c1.8,9.3,2.9,18.7,5.1,27.9
		c5.8,24.7,19.1,44.1,47.9,47.9c29.7,3.9,65-19.2,72-48.3c2.2-8.9,1.6-17.5-4-25.2c-3.6-5-7.9-7.4-14.1-5.4c-2.8,0.9-5.8,1.3-8.7,2
		c-5.6,1.2-10.1-0.3-13.7-4.9c-9.2-11.8-9.2-33.6-0.4-45.6c3.6-4.9,6.9-10.3,9.2-15.9c8.4-20.6,6.6-41.4,0.6-62.2
		c-9.6-33.8-31.1-55.9-65.6-63.7c-34-7.6-68.4-8.6-102.7-1.9c-7.6,1.5-15.1,4-22.4,6.6c-5.4,1.9-8.5,6-8.5,12.3c0,5-0.7,10-0.7,15
		C843.9,457.1,844,490.8,844,524.4z"/>
	<path d="M453,664.7c-20,0-40,0.1-60,0c-18.5-0.1-30.1-10.1-31.9-28.7c-1.8-18.7-3.3-37.5-3.7-56.3c-1.1-52.6-1.7-105.3-2.3-157.9
		c-0.1-4,0.5-8,1.2-11.9c2.1-12.5,9.3-20.7,22-22.6c9.7-1.5,19.5-2.4,29.3-2.4c35.2-0.1,70.3,0.1,105.5,0.4c5.3,0,10.6,1,15.8,2.2
		c6.4,1.5,11.1,5.8,11.7,12.3c1.2,12.9,2.4,25.9,1.8,38.8c-0.7,14-8.3,20.3-22.8,20.4c-13.5,0.1-27-0.7-40.5-1
		c-3.3-0.1-6.7,0.1-10,0.1c-4,0-5.7,2-5.5,5.9c0.2,3.2,0.2,6.3,0.3,9.5c0.3,8.1,1.6,9.4,9.8,9.8c8.2,0.4,16.3,0.6,24.5,0.9
		c1.2,0,2.3,0,3.5,0.1c12.6,0.8,19.4,6.7,19.9,19.2c0.5,13.1,0,26.3-1,39.4c-0.8,10.4-7,15.3-18.3,16.1c-10.5,0.7-21,0.8-31.5,1.4
		c-8.9,0.5-8.9,0.7-9.6,9.5c-1,13.7,0.3,15.1,14.2,15.4c15.7,0.3,31.3,0.1,46.9,1c11.5,0.6,17,5.4,17.7,17
		c0.9,14.6,0.7,29.3-0.2,43.9c-0.5,9-5.8,14-14.9,14.8c-13.4,1.1-26.9,1.2-40.4,1.5c-10.5,0.2-21,0-31.5,0
		C453,663.7,453,664.2,453,664.7z M359.2,500.9c1.6,43.3,2.7,74.9,4.1,106.6c0.5,10.3,1.2,20.7,2.9,30.8c2.4,14.3,11.6,21.8,26,21.7
		c40-0.3,80-0.7,120-1.1c3.8,0,7.7-0.5,11.4-1.1c7.5-1.2,12.1-4.9,12.3-11.6c0.5-14.6,0.5-29.3,0-43.9c-0.2-6.7-3.8-10.2-10.6-11.4
		c-5.2-0.9-10.6-1.1-15.9-1.3c-13.2-0.3-26.3-0.3-39.5-0.7c-10.4-0.3-13-3.3-12.9-13.9c0-2,0-4,0.1-6c0.2-10.4,2.6-12.6,13.1-13
		c11.8-0.5,23.6-1.1,35.4-2.1c5.9-0.5,10-4.2,10.5-10.3c0.9-10.8,1.8-21.6,1.9-32.4c0.2-18.5-4.5-22.9-22.9-23.4
		c-8.3-0.2-16.6-0.6-24.9-1c-4.9-0.3-9-2.2-9.8-7.5c-0.8-5.6-1.1-11.3-1.1-16.9c0-4.9,2.5-8.3,7.8-8.5c6-0.2,11.9-0.3,17.9-0.3
		c12.8,0.1,25.6,0.8,38.4,0.2c9.4-0.4,14.5-5.8,14.6-15.1c0.2-12.1-0.4-24.3-1.1-36.4c-0.4-6.5-4-10.2-10.8-11.4
		c-6.7-1.2-13.5-2-20.3-2c-31.8-0.2-63.7-0.2-95.5,0c-9.6,0.1-19.3,0.7-28.9,2c-12.8,1.7-18.8,7.5-20.5,20.2
		c-1.3,9.2-1.5,18.6-1.6,27.9C359.1,463.6,359.2,488.1,359.2,500.9z"/>
	<path d="M116.5,517.4c0.5-31.8,0.8-63.6,1.7-95.4c0.2-8.4,2.1-16.8,3.6-25.1c1.3-6.8,5.7-11.5,12.5-12.8c10.3-2,20.6-4.2,31-4.7
		c35.8-1.5,71.6-1,107,5.5c35.7,6.6,57.8,30.5,61.5,66.7c1.3,12.4,0.8,24.6-2.9,36.6c-3,9.9-8.1,18.5-15.5,25.8
		c-7.1,7-7.1,7.9-0.3,14.8c14.3,14.3,20.2,32.1,21.6,51.8c2.3,31.6-22.4,64.5-49.9,74.3c-19.9,7.2-40.5,9.8-61.3,9.6
		c-25-0.2-49.9-1.4-74.9-2.8c-18.9-1-28-9.9-29.6-28.6c-1.5-16.9-2.3-33.9-2.7-50.9c-0.4-21.6-0.1-43.3-0.1-65
		C117.8,517.4,117.1,517.4,116.5,517.4z M122,523.4c0.4,0,0.8,0,1.2,0c0,23.8-0.3,47.6,0.1,71.4c0.3,13.6,1.1,27.3,2.8,40.8
		c1.7,13.9,8.4,19.9,22.3,21.2c13.3,1.2,26.6,2.1,39.9,2.6c26.6,0.9,53.3,2,79.6-3.5c19.8-4.2,36.5-13.2,49.5-29.4
		c25.1-31.1,16-74.6-5.6-95.3c-8.3-8-8.1-11.5,0-19.5c8.5-8.3,13.8-18.2,16.4-29.7c2.6-11.4,2.4-22.8,0.7-34.2
		c-4.7-31.6-23.5-51.8-54.6-58.1c-33.2-6.7-66.7-7.9-100.4-6.3c-11.3,0.5-22.5,2.2-33.7,3.5c-9.1,1.1-14.4,6.4-15.3,15.6
		c-1.1,10.3-2.7,20.5-2.8,30.8C121.8,463.5,122,493.5,122,523.4z"/>
	<path d="M269.4,356.2c-2-1.1-4.6-1.6-5.1-2.9c-0.6-1.4,0.1-4.2,1.3-5.3c3-2.8,6.2-5.8,9.8-7.4c34.9-14.5,70.4-27.2,107.7-34.1
		c3.1-0.6,6.3-1.4,9.4-1c2.4,0.2,5.4,1.5,6.5,3.4c0.7,1.2-0.7,5.2-2.3,6.2c-7,4.6-14,9.8-21.8,12.7c-19.6,7.4-39.3,14.6-59.4,20.2
		C300.6,352.1,284.8,353.6,269.4,356.2z"/>
	<path class="st0" d="M1175.9,385.7c23.7,0,43.2,5.9,59.6,19.7c14.5,12.3,22.9,27.3,17.7,47.1c-3.8,14.6-14.2,20.4-28.3,15.6
		c-6.9-2.4-13.5-5.7-20.2-8.4c-3.1-1.2-6.2-2.4-9.4-3.2c-6.8-1.7-12.1,1.1-15.2,8.1c-2.2,4.8-1,9.2,5.1,12.9c6.6,4,13.7,7.5,21,10.3
		c19.9,7.5,37.9,17.7,52.2,33.8c35.1,39.5,27.8,96.2-16.3,125.2c-11.5,7.6-24.6,11-38.1,12.5c-12.1,1.4-24.3,3.6-36.2,2.8
		c-12.4-0.8-25-3.6-36.9-7.6c-20.8-6.9-34.8-20.8-37.2-43.7c-1.5-14.8,3.3-28,12.7-39.4c5-6,11.8-8.3,19.4-5.8
		c5.8,2,11.6,4.4,16.7,7.5c8.8,5.4,18,9.2,28.2,11c7.8,1.4,13.3-0.4,16.2-5.6c3.2-5.8,1.9-13.5-3.6-18.7
		c-7.4-7.1-16.9-10.4-26.2-14.1c-9.2-3.7-19-6.8-27.3-12c-28.5-17.9-40.8-52.4-32-86.6C1107.7,408.8,1138.3,385.4,1175.9,385.7z"/>
	<path class="st0" d="M775.6,659.1c-10.6,0-21.3,0.2-31.9-0.1c-8.3-0.2-13.6-4.8-15.9-12.8c-1.9-6.2-3.8-12.4-5.7-18.6
		c-2.2-7.1-6.9-11.4-14.4-11.9c-11-0.7-21.9-1.4-32.9-1.6c-6.9-0.2-11.5,3.4-13.5,10.3c-1.9,6.5-4.1,13-6.3,19.4
		c-2.9,8.1-8.5,13-17,15.4c-9.5,2.6-18.8,3.4-28.6,2c-8.9-1.2-17.9-1.5-26.9-2.3c-10.2-1-16.9-6-17.9-13.8c-0.4-3.2,0.4-6.6,1.2-9.8
		c8.2-33.7,21.6-65.7,31.8-98.8c10.1-32.6,18.2-65.8,27.4-98.6c2.7-9.6,6.1-19,9.9-28.2c5.1-12.4,15-19.3,28.3-19.6
		c19.4-0.6,38.9-0.4,58.4-0.2c10.3,0.1,17.4,5.5,20.9,15c6.9,18.3,14,36.6,19.8,55.3c17.6,56.6,34.7,113.3,51.8,170
		c1.2,4.1,1.9,8.4,2.5,12.7c1.1,8.1-2.1,13.1-10.2,14.1c-10.2,1.4-20.5,1.7-30.8,2.5C775.6,659.4,775.6,659.3,775.6,659.1z
		 M693,551.2c0-0.1,0-0.2,0-0.3c1.2,0,2.3,0.1,3.5,0c2.6-0.3,5.3-0.6,7.9-1c7.3-1.1,9-2.7,8.3-10c-0.9-9.4-1.8-18.9-4.1-28.1
		c-3.3-13.3-7.7-26.4-11.9-39.5c-0.4-1.3-2.2-2.2-3.4-3.2c-1,1.1-2.4,2-2.9,3.2c-2.8,7.1-6,14.1-7.8,21.5
		c-3.6,14.5-6.6,29.1-9.4,43.7c-1.4,7.5,0.9,10.5,8.3,12.1C685.4,550.4,689.3,550.7,693,551.2z"/>
	<path class="st0" d="M522.9,258.6c5.3,0.5,11.4,1,17.5,1.9c5.9,0.9,11,3.2,12.3,9.9c1.4,7.4,1.1,15-5.9,19.2
		c-5.4,3.3-11.8,4.9-18,6.6c-4.1,1.2-8.5,1.6-12.8,1.7c-7.7,0.2-11.3-2.8-11.9-10.4c-0.6-7.4-0.2-14.9-0.1-22.4
		c0-3.3,1.8-5.3,5.2-5.6C513.4,259.3,517.7,259,522.9,258.6z"/>
	<path class="st0" d="M516.6,164.1c5.4,0.6,11,0.9,16.3,2c7,1.4,9.6,4.6,10.7,12c1.1,7.1-0.8,12.1-6.8,15.2
		c-9.6,5-20.1,5.3-30.6,5.3c-1.4,0-4-2.5-4.1-4c-0.6-8.6-0.8-17.2-0.6-25.9c0-1.3,2.5-3.5,4.1-3.7c3.6-0.6,7.3-0.2,11-0.2
		C516.5,164.6,516.5,164.4,516.6,164.1z"/>
	<path class="st0" d="M947,200c0.7-6.9,1.4-13.9,2.1-20.8c0.4-3.7,2.4-5.4,6.3-5.4c13.1-0.1,25.9,1.7,38.3,5.5
		c9.9,3,14.8,13,11.6,23c-2.4,7.5-7.6,12.5-14.7,15.3c-11.8,4.7-24,6.3-36.7,5.5c-3.1-0.2-5-1.4-5.3-4.7
		C948.2,212.3,947.6,206.2,947,200z"/>
	<path class="st0" d="M768.9,274.8c-14.5,0.6-29,1.2-45,1.9c5.1-18.8,12.2-34.9,20.8-50.5c0.6-0.1,1.2-0.3,1.8-0.4
		c7.9,15.7,15.7,31.4,23.6,47.1C769.7,273.5,769.3,274.1,768.9,274.8z"/>
	<path class="st0" d="M383.5,185.1c-1.3,16.7-13,32.4-27.6,36.2c-7.6,2-11-1.2-9.2-8.8c2.5-10.7,6.9-20.5,13.8-29
		c1.8-2.2,3.8-4.2,6.1-5.9c3.4-2.6,7.6-5.2,11.3-2.2C380.6,177.5,381.7,181.8,383.5,185.1z"/>
	<path class="st0" d="M844,524.4c0-33.7,0-67.3,0-101c0-5,0.8-10,0.7-15c-0.1-6.2,3.1-10.3,8.5-12.3c7.3-2.6,14.8-5.1,22.4-6.6
		c34.3-6.7,68.7-5.8,102.7,1.9c34.5,7.8,55.9,29.9,65.6,63.7c5.9,20.8,7.8,41.6-0.6,62.2c-2.3,5.6-5.6,11-9.2,15.9
		c-8.8,12-8.8,33.7,0.4,45.6c3.6,4.6,8.1,6.1,13.7,4.9c2.9-0.6,5.9-1.1,8.7-2c6.3-2,10.6,0.4,14.1,5.4c5.6,7.8,6.1,16.3,4,25.2
		c-7,29.1-42.3,52.3-72,48.3c-28.8-3.8-42.1-23.2-47.9-47.9c-2.2-9.2-3.3-18.6-5.1-27.9c-0.7-3.4-1.8-6.8-3.3-9.9
		c-2.5-5.2-6-5.5-8.5-0.4c-2.3,4.9-4.7,10.3-4.8,15.5c-0.3,11.6,0.7,23.3,1.2,34.9c0.3,8.5,0.5,16.9,0.7,25.4c0.1,4-2.1,6.2-6,6.6
		c-8.9,1-17.8,2.5-26.8,2.7c-14.6,0.4-29.3,0.3-44,0c-8.6-0.2-9.1-0.6-9.6-9c-1.4-21.4-2.8-42.9-3.4-64.4c-0.6-20.6-0.1-41.3-0.1-62
		C844.8,524.4,844.4,524.4,844,524.4z M966.1,483.4c0.4-23.8-7.9-33.7-25.3-34.8c-6.5-0.4-9.9,2-10.7,8.4
		c-2.2,17.4-1.1,34.8,1.8,52.1c1.4,8.6,5.1,10,13.2,6.2C960.4,508.1,965.6,495,966.1,483.4z"/>
	<path class="st0" d="M359.2,500.9c0-12.8-0.1-37.3,0.1-61.8c0.1-9.3,0.3-18.7,1.6-27.9c1.8-12.7,7.7-18.4,20.5-20.2
		c9.5-1.3,19.2-1.9,28.9-2c31.8-0.2,63.7-0.2,95.5,0c6.8,0,13.6,0.8,20.3,2c6.7,1.2,10.4,4.9,10.8,11.4c0.8,12.1,1.3,24.3,1.1,36.4
		c-0.1,9.3-5.2,14.7-14.6,15.1c-12.8,0.5-25.6-0.2-38.4-0.2c-6,0-12,0-17.9,0.3c-5.3,0.2-7.8,3.6-7.8,8.5c0,5.6,0.3,11.3,1.1,16.9
		c0.8,5.3,4.9,7.3,9.8,7.5c8.3,0.5,16.6,0.8,24.9,1c18.4,0.4,23.1,4.8,22.9,23.4c-0.1,10.8-1,21.6-1.9,32.4
		c-0.5,6.1-4.6,9.8-10.5,10.3c-11.8,1-23.6,1.6-35.4,2.1c-10.5,0.4-12.9,2.7-13.1,13c0,2-0.1,4-0.1,6c-0.1,10.6,2.5,13.5,12.9,13.9
		c13.2,0.4,26.3,0.4,39.5,0.7c5.3,0.1,10.7,0.3,15.9,1.3c6.8,1.2,10.3,4.7,10.6,11.4c0.5,14.6,0.5,29.3,0,43.9
		c-0.2,6.8-4.8,10.4-12.3,11.6c-3.8,0.6-7.6,1-11.4,1.1c-40,0.4-80,0.8-120,1.1c-14.3,0.1-23.6-7.3-26-21.7
		c-1.7-10.2-2.5-20.5-2.9-30.8C361.9,575.9,360.8,544.2,359.2,500.9z"/>
	<path class="st0" d="M122,523.4c0-30-0.2-60,0.1-89.9c0.1-10.3,1.8-20.5,2.8-30.8c0.9-9.2,6.2-14.5,15.3-15.6
		c11.2-1.4,22.5-3,33.7-3.5c33.7-1.6,67.2-0.3,100.4,6.3c31.1,6.2,49.9,26.5,54.6,58.1c1.7,11.4,1.9,22.8-0.7,34.2
		c-2.7,11.5-8,21.4-16.4,29.7c-8.1,8-8.3,11.5,0,19.5c21.6,20.7,30.7,64.2,5.6,95.3c-13.1,16.2-29.7,25.2-49.5,29.4
		c-26.3,5.6-53,4.5-79.6,3.5c-13.3-0.5-26.6-1.4-39.9-2.6c-13.9-1.3-20.6-7.3-22.3-21.2c-1.7-13.5-2.6-27.2-2.8-40.8
		c-0.4-23.8-0.1-47.6-0.1-71.4C122.8,523.4,122.4,523.4,122,523.4z M248,579.3c-0.5-18.5-16.5-30.9-34.8-28.5
		c-3.8,0.5-6,3.4-5.8,6.5c0.7,11.4,1.6,22.8,3.3,34.1c0.7,4.6,4.8,7.6,9.7,6.6c6.6-1.3,13.3-2.8,19.5-5.5
		C245.6,589.9,247.9,584.3,248,579.3z M244.2,469.6c0.1-16.4-16.7-29.2-32.4-24.5c-1.5,0.5-3.5,2.4-3.8,3.9
		c-1.7,11.2-2.6,22.5,0.3,33.6c1.8,6.7,7.2,9.6,13.9,7.6c4.6-1.3,9.1-3.2,13.3-5.4C241.5,481.6,244.3,476.3,244.2,469.6z"/>
	<path d="M693,551.2c-3.8-0.5-7.6-0.7-11.3-1.6c-7.4-1.6-9.7-4.7-8.3-12.1c2.8-14.6,5.8-29.3,9.4-43.7c1.8-7.4,5-14.4,7.8-21.5
		c0.5-1.3,1.9-2.2,2.9-3.2c1.2,1.1,2.9,1.9,3.4,3.2c4.1,13.1,8.6,26.1,11.9,39.5c2.3,9.1,3.2,18.7,4.1,28.1c0.7,7.4-1,9-8.3,10
		c-2.6,0.4-5.3,0.7-7.9,1c-1.2,0.1-2.3,0-3.5,0C693.1,550.9,693.1,551.1,693,551.2z M694.9,476.4c-0.7,0-1.3,0-2,0
		c-2.2,6.6-4.9,13.1-6.4,19.8c-3.2,14.2-5.9,28.6-8.8,42.9c-0.7,3.6,0.9,5.9,4.6,6.1c6.9,0.3,13.9,0.4,20.8,0.4
		c4.2,0,5.9-2.1,5.2-6.3c-2-12.4-3.6-25-6.2-37.3C700.4,493.4,697.4,485,694.9,476.4z"/>
	<path d="M966.1,483.4c-0.5,11.7-5.7,24.7-21.1,31.9c-8,3.8-11.7,2.4-13.2-6.2c-2.9-17.2-4-34.6-1.8-52.1c0.8-6.4,4.3-8.8,10.7-8.4
		C958.3,449.6,966.5,459.6,966.1,483.4z M933.9,478c-0.3,0-0.6,0-0.9,0.1c1,10.1,1.7,20.2,3,30.3c0.7,5.1,2,5.4,6.7,3.3
		c14.2-6.4,21.9-22.6,18.9-39.2c-2.5-13.5-8.1-19-20-19.5c-5.7-0.2-7.2,0.9-7.6,6.6C933.6,465.6,933.9,471.8,933.9,478z"/>
	<path d="M248,579.3c-0.1,5-2.3,10.7-8.1,13.1c-6.1,2.7-12.9,4.1-19.5,5.5c-5,1-9.1-1.9-9.7-6.6c-1.7-11.3-2.6-22.7-3.3-34.1
		c-0.2-3.1,2-6,5.8-6.5C231.5,548.4,247.5,560.8,248,579.3z M211.1,568c0.5,4,1.1,11.4,2.6,18.7c1.3,6.8,3.5,8,10.2,6.5
		c4-0.9,8-2.1,11.9-3.5c5.6-2.1,8.6-7.5,7.8-13.6c-1.3-11-10.4-19.7-22-21.2C212.2,553.9,211,554.9,211.1,568z"/>
	<path d="M244.2,469.6c0.1,6.8-2.7,12.1-8.6,15.3c-4.2,2.3-8.7,4.1-13.3,5.4c-6.7,2-12.1-0.9-13.9-7.6c-2.9-11.1-2-22.4-0.3-33.6
		c0.2-1.5,2.2-3.4,3.8-3.9C227.5,440.4,244.3,453.2,244.2,469.6z M211.2,465c-0.2,0-0.5,0-0.7,0c0.5,4.8,0.6,9.6,1.5,14.3
		c1.2,6.3,4.2,8.3,10.4,6.5c4.2-1.3,8.4-3.2,12.2-5.5c4.5-2.8,6-7.4,5.5-12.6c-1-10.4-10.4-19-20.9-19.1c-7-0.1-7.3,0.1-7.8,6.9
		C211,458.7,211.2,461.9,211.2,465z"/>
	<path class="st0" d="M694.9,476.4c2.5,8.5,5.5,17,7.3,25.6c2.5,12.3,4.1,24.8,6.2,37.3c0.7,4.2-1,6.3-5.2,6.3
		c-6.9-0.1-13.9-0.1-20.8-0.4c-3.7-0.2-5.3-2.4-4.6-6.1c2.9-14.3,5.5-28.6,8.8-42.9c1.5-6.7,4.2-13.2,6.4-19.8
		C693.6,476.5,694.2,476.4,694.9,476.4z"/>
	<path class="st0" d="M933.9,478c0-6.2-0.3-12.3,0.1-18.5c0.3-5.8,1.9-6.9,7.6-6.6c11.9,0.5,17.5,6,20,19.5
		c3,16.7-4.7,32.8-18.9,39.2c-4.8,2.2-6.1,1.8-6.7-3.3c-1.3-10.1-2-20.2-3-30.3C933.3,478,933.6,478,933.9,478z"/>
	<path class="st0" d="M211.1,568c-0.1-13.1,1.1-14.2,10.5-13c11.6,1.4,20.7,10.2,22,21.2c0.7,6.1-2.2,11.4-7.8,13.6
		c-3.9,1.5-7.9,2.6-11.9,3.5c-6.7,1.5-8.9,0.3-10.2-6.5C212.2,579.5,211.6,572,211.1,568z"/>
	<path class="st0" d="M211.2,465c0-3.2-0.2-6.3,0-9.5c0.5-6.8,0.8-7,7.8-6.9c10.5,0.1,19.9,8.7,20.9,19.1c0.5,5.2-1,9.8-5.5,12.6
		c-3.8,2.3-7.9,4.3-12.2,5.5c-6.2,1.8-9.2-0.2-10.4-6.5c-0.9-4.7-1-9.6-1.5-14.3C210.7,465.1,211,465.1,211.2,465z"/>
</g>
</svg>
