<?xml version="1.0" encoding="utf-8"?>
<!-- Generator: Adobe Illustrator 22.1.0, SVG Export Plug-In . SVG Version: 6.00 Build 0)  -->
<svg version="1.1" id="Layer_1" xmlns="http://www.w3.org/2000/svg" xmlns:xlink="http://www.w3.org/1999/xlink" x="0px" y="0px"
	 viewBox="0 0 882 638" style="enable-background:new 0 0 882 638;" xml:space="preserve">
<g>
	<g>
		<circle cx="301" cy="186.5" r="147.7"/>
		<g>
			<path d="M428.7,186.5c0,3.7-0.1,7.5-0.4,11.2c-0.1,1.8-0.3,3.7-0.5,5.5c-0.2,2.2,0.8,1.4,0.2-1.2c0.2,0.9-0.4,2.5-0.5,3.4
				c-1.2,7.4-3,14.6-5.3,21.7c-1,3.2-2.3,6.3-3.4,9.4c-0.9,2.5,1.6-3.5,0.5-1.1c-0.4,0.8-0.7,1.6-1.1,2.4c-0.8,1.8-1.7,3.6-2.6,5.4
				c-3.2,6.3-6.8,12.3-10.9,18.1c-0.7,1-2,3.7-3.1,4.2c1.6-0.8,2.2-2.8,0.7-0.9c-0.6,0.7-1.1,1.4-1.7,2c-2.4,2.9-4.9,5.6-7.4,8.3
				c-2.4,2.5-4.9,4.9-7.5,7.3c-1.3,1.2-2.6,2.3-4,3.4c-0.5,0.4-1,0.8-1.5,1.3c-0.5,0.4-1,0.8-1.5,1.2c-1.2,0.9-0.7,0.5,1.5-1.1
				c-1.1,2.2-6.5,4.7-8.6,6c-2.9,1.9-6,3.7-9,5.4c-3.1,1.7-6.2,3.3-9.4,4.8c-0.8,0.4-1.6,0.7-2.4,1.1c-2.3,1.1,0.1,0.8,1.1-0.5
				c-0.8,1-4.4,1.7-5.6,2.2c-7,2.5-14.1,4.5-21.4,6c-1.8,0.4-3.6,0.7-5.4,1c-0.7,0.1-1.4,0.2-2,0.3c-2.8,0.4,4-0.4,1.2-0.2
				c-3.9,0.4-7.8,0.8-11.8,0.9c-7.7,0.3-15.4-0.2-23-0.9c-2.8-0.3,4,0.6,1.2,0.2c-0.7-0.1-1.4-0.2-2-0.3c-1.8-0.3-3.6-0.6-5.4-1
				c-3.8-0.7-7.5-1.6-11.2-2.7c-3.4-1-6.9-2.1-10.2-3.3c-1.7-0.6-3.3-1.3-5-1.9c-2.5-0.9,3.5,1.7,1.1,0.5c-1-0.5-2-0.9-3-1.4
				c-6.4-3-12.6-6.4-18.5-10.2c-2.1-1.3-7.5-3.8-8.6-6c0.8,1.6,2.8,2.2,0.9,0.7c-0.7-0.6-1.4-1.1-2-1.7c-1.5-1.3-3-2.5-4.5-3.9
				c-5.4-4.8-10.4-10-15-15.6c-0.6-0.7-1.1-1.4-1.7-2c-1.5-1.9-0.9,0.1,0.7,0.9c-1-0.5-2-2.7-2.7-3.7c-2.2-3-4.2-6.2-6.1-9.4
				c-1.8-3-3.5-6.1-5.1-9.2c-0.8-1.6-1.6-3.2-2.3-4.8c-0.4-0.8-0.7-1.6-1.1-2.4c-1.5-3.4,1.1,2.8,0.2,0.5c-2.5-7-5-13.8-6.7-21.1
				c-0.8-3.3-1.5-6.7-2-10c-0.1-0.9-0.3-1.8-0.4-2.7c-0.4-2.8,0.4,4,0.2,1.2c-0.2-2.1-0.4-4.1-0.6-6.2c-0.6-7.5-0.6-15,0-22.4
				c0.1-1.8,0.3-3.7,0.5-5.5c0.3-3.6-0.1,0.7-0.2,1.2c0.2-0.9,0.3-1.8,0.4-2.7c0.6-3.8,1.4-7.6,2.3-11.3c0.8-3.5,1.8-7,2.9-10.4
				c0.5-1.5,1-3,1.5-4.4c0.5-1.3,1.3-5.4,2.4-6.2c-0.2,0.1-2,4.5-0.5,1.1c0.4-0.8,0.7-1.6,1.1-2.4c0.7-1.6,1.5-3.2,2.3-4.8
				c1.6-3.1,3.3-6.2,5.1-9.2c1.8-3,3.7-5.9,5.7-8.8c0.6-0.9,2.1-3.8,3.1-4.2c-0.2,0.1-3,3.8-0.7,0.9c0.7-0.8,1.4-1.7,2.1-2.5
				c4.6-5.5,9.7-10.7,15-15.5c1.1-1,2.3-2,3.5-3c0.5-0.4,5.1-4,2.6-2.1c-2.6,1.9,2.2-1.6,2.7-2c1.6-1.1,3.2-2.3,4.9-3.3
				c6.1-4,12.5-7.5,19.1-10.5c0.6-0.3,1.2-0.5,1.8-0.8c3.4-1.6-1,0.3-1.1,0.5c0.6-0.9,4-1.6,5-1.9c3.6-1.3,7.2-2.5,10.8-3.5
				c3.5-1,7-1.8,10.5-2.5c1.8-0.4,3.6-0.7,5.4-1c0.7-0.1,1.4-0.2,2-0.3c4.8-0.8-4.7,0.4,0.1,0c7.5-0.7,14.9-1.1,22.4-0.8
				c3.7,0.1,7.4,0.5,11.1,0.8c3.8,0.4-0.9-0.3-1.2-0.2c0.5-0.1,2.3,0.3,2.7,0.4c2,0.3,4,0.7,6,1.1c7.3,1.5,14.4,3.5,21.4,6.1
				c1,0.4,4.4,1.1,5,1.9c-0.1-0.2-4.5-2-1.1-0.5c0.6,0.3,1.2,0.5,1.8,0.8c3.4,1.6,6.8,3.3,10,5.1c3.1,1.7,6.1,3.5,9,5.4
				c1.5,1,2.9,1.9,4.4,2.9c0.7,0.5,1.4,1,2.1,1.5c0.5,0.4,3.7,2.7,1.1,0.8c-2.5-1.9,1.5,1.2,2.1,1.7c1.3,1.1,2.7,2.3,4,3.4
				c2.9,2.6,5.8,5.3,8.5,8.2c2.3,2.4,4.5,4.8,6.6,7.3c0.4,0.5,4,5.1,2.1,2.6c-1.8-2.4,0,0,0.4,0.6c0.6,0.9,1.3,1.8,1.9,2.7
				c4,5.8,7.7,11.8,10.9,18.1c0.8,1.6,1.6,3.2,2.3,4.8c0.4,0.8,0.7,1.6,1.1,2.4c1.6,3.4-0.3-1-0.5-1.1c0.9,0.6,1.6,4,1.9,5
				c0.7,1.9,1.3,3.8,2,5.7c2.3,7.1,4,14.4,5.2,21.7c0.1,0.9,0.2,1.8,0.4,2.7c-0.1-0.5-0.5-4.8-0.2-1.2c0.2,1.8,0.4,3.7,0.5,5.5
				C428.5,179,428.7,182.8,428.7,186.5c0,10.5,9.2,20.5,20,20s20.1-8.8,20-20c-0.2-34-10.4-68.3-30.3-96
				C418,62,390.2,40.7,357.3,28.6c-64.4-23.7-141-2.9-184.5,50c-22.7,27.5-36.1,60.4-38.9,96c-2.7,33.9,5.8,68.9,23.3,98
				c17,28.3,42.8,52.1,73,65.7c33.2,15,69.4,19.4,105.2,12.3c66.3-13.2,121-69.7,131-136.6c1.4-9.1,2.3-18.3,2.4-27.5
				c0-10.5-9.2-20.5-20-20C437.8,167,428.7,175.3,428.7,186.5z"/>
		</g>
	</g>
	<g>
		<path d="M569,605c0-148-120-268-268-268S33,457,33,605H569z"/>
		<g>
			<path d="M589,605.2c-0.2-58.9-18.2-117.7-52.5-165.7c-34.3-48.1-81.9-84.6-137.3-105c-56.1-20.7-119.3-22.7-176.7-6.4
				c-55.1,15.6-105.8,48.2-142.3,92.4c-38.4,46.5-61.5,103-66.4,163.2c-0.6,7.2-0.8,14.4-0.9,21.6c0,10.8,9.2,20,20,20
				c17.7,0,35.5,0,53.2,0c42.8,0,85.5,0,128.3,0c51.6,0,103.2,0,154.7,0c44.6,0,89.2,0,133.8,0c21.7,0,43.4,0.5,65.1,0
				c0.3,0,0.6,0,0.9,0C579.5,625.2,589.5,616,589,605.2s-8.8-20-20-20c-17.7,0-35.5,0-53.2,0c-42.8,0-85.5,0-128.3,0
				c-51.6,0-103.2,0-154.7,0c-44.6,0-89.2,0-133.8,0c-21.6,0-43.5-0.9-65.1,0c-0.3,0-0.6,0-0.9,0c6.7,6.7,13.3,13.3,20,20
				c0-7,0.3-14,0.8-20.9c0.3-3.4,0.6-6.9,1-10.3c0.1-0.7,0.2-1.4,0.2-2c0.4-3.7-0.2,0.9-0.2,1.2c-0.3-1.5,0.6-3.9,0.8-5.4
				c2.2-13.6,5.4-26.9,9.6-40c2.1-6.3,4.4-12.6,6.9-18.8c1.7-4.3-1.2,2.5,0.3-0.7c0.7-1.6,1.4-3.2,2.2-4.8c1.4-3,2.8-6,4.3-8.9
				c5.9-11.7,12.7-23,20.3-33.7c1.5-2.1,3.7-6.6,5.8-7.9c-0.3,0.2-2.9,3.7-0.7,0.9c0.4-0.5,0.8-1,1.2-1.5c1.2-1.5,2.5-3.1,3.7-4.6
				c4.2-5,8.6-9.9,13.1-14.6c4.5-4.7,9.3-9.2,14.1-13.6c2.3-2,4.6-4,6.9-6c1.3-1.1,2.7-2.2,4-3.3c0.5-0.4,1-0.8,1.5-1.2
				c2.5-2,0.4-1.1-0.4,0.3c1.2-2,5.4-4,7.4-5.4c2.8-2,5.7-4,8.7-5.9c5.5-3.6,11.1-7,16.9-10.2s11.7-6.2,17.7-8.9
				c1.6-0.7,3.2-1.4,4.8-2.2c3.3-1.5-3.9,1.6,0.7-0.3c3.1-1.2,6.2-2.5,9.3-3.6c12.8-4.7,26-8.4,39.4-11.1c3.1-0.6,6.2-1.2,9.4-1.7
				c1.6-0.3,3.2-0.5,4.7-0.7c3.7-0.6-0.9,0-1.2,0.2c0.9-0.4,2.4-0.3,3.4-0.4c6.9-0.8,13.8-1.3,20.7-1.6c14.2-0.5,28.4,0,42.5,1.7
				c0.7,0.1,1.4,0.2,2,0.3c2.8,0.3-4-0.6-1.2-0.2c1.6,0.2,3.2,0.5,4.7,0.7c3.6,0.6,7.2,1.2,10.7,1.9c6.6,1.3,13.2,2.9,19.7,4.8
				c6.4,1.8,12.8,3.9,19.1,6.2c2.9,1.1,5.8,2.2,8.7,3.4c0.7,0.3,1.8,0.6,2.5,1c-0.3-0.2-4.3-1.9-1.1-0.5c1.6,0.7,3.2,1.4,4.8,2.2
				c12,5.5,23.5,11.9,34.5,19.1c2.7,1.8,5.5,3.6,8.1,5.5c2.1,1.5,6.6,3.6,7.9,5.8c-1.3-2.1-2.6-2.1-0.9-0.7c0.7,0.5,1.4,1.1,2,1.6
				c1.2,1,2.4,1.9,3.5,2.9c2.5,2.1,5,4.2,7.4,6.4c9.9,8.9,19.1,18.4,27.6,28.7c1,1.2,1.9,2.4,2.9,3.5c0.6,0.7,3.4,4.5,1.7,2.1
				c-1.8-2.6,1.1,1.5,1.6,2.2c1.2,1.6,2.3,3.2,3.5,4.8c3.8,5.4,7.4,10.8,10.8,16.5c3.4,5.6,6.6,11.4,9.6,17.3
				c1.5,2.9,2.9,5.9,4.3,8.9c0.6,1.4,1.3,2.8,1.9,4.2c0.3,0.7,1.7,3.3,0.3,0.7c-1.5-2.8,0.4,0.9,0.5,1.3c5,12.4,9.2,25.2,12.3,38.2
				c1.6,6.6,2.9,13.3,4,20c0.3,1.6,0.5,3.2,0.7,4.7c0.4,2.8-0.5-4-0.2-1.2c0.1,0.7,0.2,1.4,0.3,2c0.4,3.7,0.8,7.3,1.1,11
				c0.5,7,0.8,14,0.8,20.9c0,10.5,9.2,20.5,20,20C579.9,624.7,589.1,616.4,589,605.2z"/>
		</g>
	</g>
</g>
<g>
	<g>
		<g>
			<path d="M544.3,150c33.2,0,66.5,0,99.7,0c52.9,0,105.8,0,158.8,0c12.1,0,24.1,0,36.2,0c15.7,0,30.7-13.8,30-30
				c-0.7-16.3-13.2-30-30-30c-33.2,0-66.5,0-99.7,0c-52.9,0-105.8,0-158.8,0c-12.1,0-24.1,0-36.2,0c-15.7,0-30.7,13.8-30,30
				C515,136.3,527.5,150,544.3,150L544.3,150z"/>
		</g>
	</g>
	<g>
		<g>
			<path d="M595.1,352c27.5,0,55.1,0,82.6,0c43.7,0,87.4,0,131.1,0c10.1,0,20.1,0,30.2,0c15.7,0,30.7-13.8,30-30
				c-0.7-16.3-13.2-30-30-30c-27.5,0-55.1,0-82.6,0c-43.7,0-87.4,0-131.1,0c-10.1,0-20.1,0-30.2,0c-15.7,0-30.7,13.8-30,30
				C565.8,338.3,578.3,352,595.1,352L595.1,352z"/>
		</g>
	</g>
	<g>
		<g>
			<path d="M696.7,554c41.6,0,83.1,0,124.7,0c5.9,0,11.7,0,17.6,0c15.7,0,30.7-13.8,30-30c-0.7-16.3-13.2-30-30-30
				c-41.6,0-83.1,0-124.7,0c-5.9,0-11.7,0-17.6,0c-15.7,0-30.7,13.8-30,30C667.5,540.2,679.9,554,696.7,554L696.7,554z"/>
		</g>
	</g>
</g>
</svg>
