<?xml version="1.0" encoding="utf-8"?>
<!-- Generator: Adobe Illustrator 22.1.0, SVG Export Plug-In . SVG Version: 6.00 Build 0)  -->
<svg version="1.1" id="Layer_1" xmlns="http://www.w3.org/2000/svg" xmlns:xlink="http://www.w3.org/1999/xlink" x="0px" y="0px"
	 viewBox="0 0 74 74.4" style="enable-background:new 0 0 74 74.4;" xml:space="preserve">
<style type="text/css">
	.st0{fill:none;stroke:#FFFFFF;stroke-width:4;stroke-miterlimit:10;}
	.st1{fill:#FFFFFF;}
	.st2{fill:none;stroke:#FFFFFF;stroke-miterlimit:10;}
	.st3{fill:url(#SVGID_1_);stroke:#312A1B;stroke-width:2;stroke-miterlimit:10;}
	.st4{opacity:0.5;fill:#FFFFFF;}
	.st5{fill:none;stroke:#312A1B;stroke-width:2;stroke-miterlimit:10;}
	.st6{opacity:0.52;fill:#FFFFFF;}
	.st7{opacity:0.73;fill:#FFFFFF;}
	.st8{opacity:0.49;}
	.st9{fill:#FFFFFF;stroke:#312A1B;stroke-width:2;stroke-miterlimit:10;}
	.st10{fill:url(#SVGID_2_);stroke:#312A1B;stroke-width:2;stroke-miterlimit:10;}
	.st11{opacity:0.4;fill:#FFFFFF;stroke:#312A1B;stroke-width:2;stroke-miterlimit:10;}
	.st12{fill:#F7F7F7;}
	.st13{opacity:0.73;}
	.st14{fill:#312A1B;}
</style>
<path class="st11" d="M72.4,36.4c0,1.6-0.1,3.3-0.2,5.1c-2,25-23,32-36,31s-34-3-34-34c0-0.2,0-0.4,0-0.6C1.5-2.5,38.7,2,38.7,2
	C59.6,2.4,72.3,14.6,72.4,36.4z"/>
<path class="st12" d="M72.4,36.4C62.6,42.6,47.8,50.3,36,49.6c-11.9-0.7-25.3-7-33.8-11.8C1.5-2.5,38.7,2,38.7,2
	C59.6,2.4,72.3,14.6,72.4,36.4z"/>
<path class="st5" d="M72.4,36.4c0,1.6-0.1,3.3-0.2,5.1c-2,25-23,32-36,31s-34-3-34-34c0-0.2,0-0.4,0-0.6C1.5-2.5,38.7,2,38.7,2
	C59.6,2.4,72.3,14.6,72.4,36.4z"/>
<path class="st1" d="M25.9,34.4v17.1h-6c-1,0-1.9-0.6-1.9-1.4V35.8c0-0.8,0.8-1.4,1.9-1.4H25.9z"/>
<path class="st1" d="M45,27.7v30.6c0,1.4-1.7,2.3-3.1,1.6l-15.2-7.7c-0.7-0.3-1.1-1-1.1-1.6V35.4c0-0.7,0.4-1.3,1.1-1.6L41.9,26
	C43.3,25.3,45,26.2,45,27.7z"/>
<g>
	<path class="st1" d="M58.9,43.7h-11c-1.1,0-2-0.9-2-2v0c0-1.1,0.9-2,2-2h11c1.1,0,2,0.9,2,2v0C60.8,42.8,59.9,43.7,58.9,43.7z"/>
</g>
<path class="st8" d="M45,26.1v30.6c0,1.4-1.7,2.3-3.1,1.6l-15.2-7.7c-0.3-0.2-0.6-0.4-0.8-0.7v0h-4.8c-0.8,0-1.5-0.6-1.5-1.4V34.3
	c0-0.8,0.7-1.4,1.5-1.4h4.8v0c0.2-0.3,0.5-0.6,0.8-0.8l15.2-7.7C43.3,23.8,45,24.7,45,26.1z"/>
<g class="st8">
	<path d="M58.9,41.9h-11c-1.1,0-2-0.9-2-2v0c0-1.1,0.9-2,2-2h11c1.1,0,2,0.9,2,2v0C60.8,41,59.9,41.9,58.9,41.9z"/>
</g>
<path class="st9" d="M26.5,30.1v17.1H22c-0.8,0-1.4-0.6-1.4-1.4V31.5c0-0.8,0.6-1.4,1.4-1.4H26.5z"/>
<path class="st9" d="M43.9,23.3v30.6c0,1.4-1.5,2.3-2.8,1.6l-13.8-7.7c-0.6-0.3-1-1-1-1.6V31c0-0.7,0.4-1.3,1-1.6l13.8-7.7
	C42.4,21,43.9,21.9,43.9,23.3z"/>
<g>
	<path class="st14" d="M58.9,40.6h-11c-1.1,0-2-0.9-2-2v0c0-1.1,0.9-2,2-2h11c1.1,0,2,0.9,2,2v0C60.8,39.7,59.9,40.6,58.9,40.6z"/>
</g>
</svg>
