<svg id="Layer_1" data-name="Layer 1" xmlns="http://www.w3.org/2000/svg" viewBox="0 0 73.97 74.38"><defs><style>.cls-1,.cls-4,.cls-6{fill:#fff;}.cls-1,.cls-3,.cls-6{stroke:#312a1b;stroke-miterlimit:10;stroke-width:2px;}.cls-1{opacity:0.4;}.cls-2{fill:#f7f7f7;}.cls-3{fill:none;}.cls-4{opacity:0.73;}.cls-5{opacity:0.49;}</style></defs><title>Untitled-2</title><path class="cls-1" d="M72.25,36c0,1.63-.06,3.32-.2,5.06-2,25-23,32-36,31s-34-3-34-34c0-.19,0-.39,0-.58C1.4-2.86,38.55,1.6,38.55,1.6,59.48,2.07,72.19,14.21,72.25,36Z"/><path class="cls-2" d="M72.25,36C62.47,42.21,47.66,50,35.88,49.27,24,48.55,10.55,42.24,2,37.52,1.4-2.86,38.55,1.6,38.55,1.6,59.48,2.07,72.19,14.21,72.25,36Z"/><path class="cls-3" d="M72.25,36c0,1.63-.06,3.32-.2,5.06-2,25-23,32-36,31s-34-3-34-34c0-.19,0-.39,0-.58C1.4-2.86,38.55,1.6,38.55,1.6,59.48,2.07,72.19,14.21,72.25,36Z"/><rect class="cls-4" x="26.99" y="27.62" width="9.91" height="30.83" rx="3.92" ry="3.92"/><rect class="cls-5" x="27.02" y="25.92" width="9.43" height="30.83" rx="3.92" ry="3.92"/><rect class="cls-4" x="41.68" y="27.62" width="10.06" height="30.83" rx="3.92" ry="3.92"/><rect class="cls-5" x="41.81" y="25.92" width="9.43" height="30.83" rx="3.92" ry="3.92"/><rect class="cls-6" x="26.99" y="23.62" width="9.43" height="30.83" rx="3.92" ry="3.92"/><rect class="cls-6" x="41.82" y="23.62" width="9.43" height="30.83" rx="3.92" ry="3.92"/></svg>