<svg id="Layer_1" data-name="Layer 1" xmlns="http://www.w3.org/2000/svg" viewBox="0 0 73.97 74.38"><defs><style>.cls-1,.cls-5,.cls-7{fill:#fff;}.cls-1,.cls-3,.cls-7{stroke:#312a1b;stroke-miterlimit:10;stroke-width:2px;}.cls-1{opacity:0.4;}.cls-2{fill:#f7f7f7;}.cls-3{fill:none;}.cls-4{opacity:0.73;}.cls-6{opacity:0.49;}</style></defs><title>Untitled-2</title><path class="cls-1" d="M72.09,36.4c0,1.63-.06,3.32-.2,5.06-2,25-23,32-36,31s-34-3-34-34c0-.19,0-.39,0-.58C1.24-2.5,38.39,2,38.39,2,59.32,2.43,72,14.57,72.09,36.4Z"/><path class="cls-2" d="M72.09,36.4C62.31,42.57,47.5,50.34,35.72,49.63s-25.33-7-33.84-11.75C1.24-2.5,38.39,2,38.39,2,59.32,2.43,72,14.57,72.09,36.4Z"/><path class="cls-3" d="M72.09,36.4c0,1.63-.06,3.32-.2,5.06-2,25-23,32-36,31s-34-3-34-34c0-.19,0-.39,0-.58C1.24-2.5,38.39,2,38.39,2,59.32,2.43,72,14.57,72.09,36.4Z"/><g class="cls-4"><path class="cls-5" d="M38.47,57.45a3.09,3.09,0,0,1-.78-.1,1.1,1.1,0,0,1-.24-.09l-.09,0a1.84,1.84,0,0,1-.36-.15c-.14-.07-14.49-7.82-14.49-16.72,0-5.65,3.93-9.9,9.14-9.9a10.49,10.49,0,0,1,6.82,3,10.45,10.45,0,0,1,6.82-3c5.2,0,9.13,4.25,9.13,9.9,0,8.9-14.35,16.65-14.49,16.73a2.67,2.67,0,0,1-.36.14l-.07,0a1.27,1.27,0,0,1-.23.08A3.06,3.06,0,0,1,38.47,57.45Z"/></g><g class="cls-6"><path d="M38.47,54.7a3.09,3.09,0,0,1-.78-.1,1.1,1.1,0,0,1-.24-.09l-.09,0a1.84,1.84,0,0,1-.36-.15c-.14-.07-14.49-7.82-14.49-16.72,0-5.65,3.93-9.9,9.14-9.9a10.49,10.49,0,0,1,6.82,3,10.45,10.45,0,0,1,6.82-3c5.2,0,9.13,4.25,9.13,9.9,0,8.9-14.35,16.65-14.49,16.73a2.67,2.67,0,0,1-.36.14l-.07,0a1.27,1.27,0,0,1-.23.08A3.06,3.06,0,0,1,38.47,54.7Z"/></g><path class="cls-7" d="M38,51.87a3.09,3.09,0,0,1-.78-.1L37,51.68l-.09,0a2.75,2.75,0,0,1-.36-.15C36.36,51.42,22,43.68,22,34.77c0-5.64,3.93-9.9,9.14-9.9a10.54,10.54,0,0,1,6.82,3,10.5,10.5,0,0,1,6.82-3c5.2,0,9.13,4.26,9.13,9.9,0,8.91-14.35,16.65-14.49,16.73a2.75,2.75,0,0,1-.36.15l-.07,0-.23.08A3.06,3.06,0,0,1,38,51.87Z"/></svg>