<svg id="Layer_1" data-name="Layer 1" xmlns="http://www.w3.org/2000/svg" viewBox="0 0 73.97 74.38"><defs><style>.cls-1,.cls-4,.cls-6{fill:#fff;}.cls-1,.cls-3,.cls-6{stroke:#312a1b;stroke-miterlimit:10;stroke-width:2px;}.cls-1{opacity:0.4;}.cls-2{fill:#f7f7f7;}.cls-3{fill:none;}.cls-5{opacity:0.49;}</style></defs><title>Untitled-2</title><path class="cls-1" d="M71.91,36.4c0,1.63-.06,3.32-.2,5.06-2,25-23,32-36,31s-34-3-34-34c0-.19,0-.39,0-.58C1.06-2.5,38.21,2,38.21,2,59.14,2.43,71.85,14.57,71.91,36.4Z"/><path class="cls-2" d="M71.91,36.4c-9.78,6.17-24.59,13.94-36.37,13.23S10.21,42.6,1.7,37.88C1.06-2.5,38.21,2,38.21,2,59.14,2.43,71.85,14.57,71.91,36.4Z"/><path class="cls-3" d="M71.91,36.4c0,1.63-.06,3.32-.2,5.06-2,25-23,32-36,31s-34-3-34-34c0-.19,0-.39,0-.58C1.06-2.5,38.21,2,38.21,2,59.14,2.43,71.85,14.57,71.91,36.4Z"/><path class="cls-4" d="M53.8,49.26a3.94,3.94,0,0,1,0,5.54l-3.28,3.27a3.92,3.92,0,0,1-5.54,0l-7.24-7.24L30.5,58.07a3.92,3.92,0,0,1-5.54,0L21.68,54.8a3.94,3.94,0,0,1,0-5.54L28.92,42l-7.24-7.24a3.94,3.94,0,0,1,0-5.54L25,26a3.94,3.94,0,0,1,5.54,0l7.24,7.24L45,26a3.94,3.94,0,0,1,5.54,0l3.28,3.28a3.94,3.94,0,0,1,0,5.54L46.56,42Z"/><path class="cls-5" d="M53.8,47.13a3.94,3.94,0,0,1,0,5.54l-3.28,3.27a3.92,3.92,0,0,1-5.54,0L37.74,48.7,30.5,55.94a3.92,3.92,0,0,1-5.54,0l-3.28-3.27a3.94,3.94,0,0,1,0-5.54l7.24-7.25-7.24-7.24a3.94,3.94,0,0,1,0-5.54L25,23.82a3.94,3.94,0,0,1,5.54,0l7.24,7.24L45,23.82a3.94,3.94,0,0,1,5.54,0L53.8,27.1a3.94,3.94,0,0,1,0,5.54l-7.24,7.24Z"/><path class="cls-6" d="M53.8,43.8a3.94,3.94,0,0,1,0,5.54l-3.28,3.27a3.92,3.92,0,0,1-5.54,0l-7.24-7.24L30.5,52.61a3.92,3.92,0,0,1-5.54,0l-3.28-3.27a3.94,3.94,0,0,1,0-5.54l7.24-7.25-7.24-7.24a3.94,3.94,0,0,1,0-5.54L25,20.49a3.94,3.94,0,0,1,5.54,0l7.24,7.24L45,20.49a3.94,3.94,0,0,1,5.54,0l3.28,3.28a3.94,3.94,0,0,1,0,5.54l-7.24,7.24Z"/></svg>