<svg id="Layer_1" data-name="Layer 1" xmlns="http://www.w3.org/2000/svg" viewBox="0 0 73.97 74.38"><defs><style>.cls-1,.cls-4,.cls-6{fill:#fff;}.cls-1,.cls-3,.cls-6{stroke:#312a1b;stroke-miterlimit:10;stroke-width:2px;}.cls-1{opacity:0.4;}.cls-2{fill:#f7f7f7;}.cls-3{fill:none;}.cls-5{opacity:0.49;}.cls-7{fill:#312a1b;}</style></defs><title>Untitled-2</title><path class="cls-1" d="M72.37,36.4c0,1.63-.06,3.32-.2,5.06-2,25-23,32-36,31s-34-3-34-34c0-.19,0-.39,0-.58C1.52-2.5,38.67,2,38.67,2,59.6,2.43,72.31,14.57,72.37,36.4Z"/><path class="cls-2" d="M72.37,36.4C62.59,42.57,47.78,50.34,36,49.63s-25.33-7-33.84-11.75C1.52-2.5,38.67,2,38.67,2,59.6,2.43,72.31,14.57,72.37,36.4Z"/><path class="cls-3" d="M72.37,36.4c0,1.63-.06,3.32-.2,5.06-2,25-23,32-36,31s-34-3-34-34c0-.19,0-.39,0-.58C1.52-2.5,38.67,2,38.67,2,59.6,2.43,72.31,14.57,72.37,36.4Z"/><path class="cls-4" d="M25.88,34.44V51.51h-6c-1.05,0-1.9-.63-1.9-1.41V35.84c0-.77.85-1.4,1.9-1.4Z"/><path class="cls-4" d="M45,27.67v30.6a2.07,2.07,0,0,1-3.08,1.64L26.69,52.22a1.85,1.85,0,0,1-1.06-1.64V35.36a1.84,1.84,0,0,1,1.06-1.63L41.88,26A2.07,2.07,0,0,1,45,27.67Z"/><rect class="cls-4" x="45.92" y="39.77" width="14.89" height="3.9" rx="1.95" ry="1.95"/><rect class="cls-4" x="45.31" y="30.23" width="14.89" height="3.9" rx="1.95" ry="1.95" transform="translate(-8.8 37.6) rotate(-36.42)"/><rect class="cls-4" x="45.31" y="49.32" width="14.89" height="3.9" rx="1.95" ry="1.95" transform="translate(64.76 123.85) rotate(-143.58)"/><path class="cls-5" d="M45,26.09V56.7a2.08,2.08,0,0,1-3.08,1.63L26.69,50.64a2.08,2.08,0,0,1-.81-.74v0H21.13a1.45,1.45,0,0,1-1.5-1.4V34.27a1.46,1.46,0,0,1,1.5-1.42h4.75v0a2,2,0,0,1,.81-.75l15.19-7.69A2.08,2.08,0,0,1,45,26.09Z"/><g class="cls-5"><rect x="45.92" y="38.02" width="14.89" height="3.9" rx="1.95" ry="1.95"/><rect x="45.31" y="28.48" width="14.89" height="3.9" rx="1.95" ry="1.95" transform="translate(-7.76 37.26) rotate(-36.42)"/><rect x="45.31" y="47.57" width="14.89" height="3.9" rx="1.95" ry="1.95" transform="translate(65.8 120.69) rotate(-143.58)"/></g><path class="cls-6" d="M26.46,30.11V47.18H22a1.41,1.41,0,0,1-1.4-1.41V31.51a1.4,1.4,0,0,1,1.4-1.4Z"/><path class="cls-6" d="M44,23.34v30.6a1.88,1.88,0,0,1-2.8,1.64L27.38,47.89a1.88,1.88,0,0,1-1-1.64V31a1.88,1.88,0,0,1,1-1.64L41.15,21.7A1.88,1.88,0,0,1,44,23.34Z"/><rect class="cls-7" x="45.92" y="36.69" width="14.89" height="3.9" rx="1.95" ry="1.95"/><rect class="cls-7" x="45.31" y="27.14" width="14.89" height="3.9" rx="1.95" ry="1.95" transform="translate(-6.97 37) rotate(-36.42)"/><rect class="cls-7" x="45.31" y="46.24" width="14.89" height="3.9" rx="1.95" ry="1.95" transform="translate(66.59 118.28) rotate(-143.58)"/></svg>