<svg id="Layer_1" data-name="Layer 1" xmlns="http://www.w3.org/2000/svg" viewBox="0 0 73.97 74.38"><defs><style>.cls-1,.cls-4,.cls-6{fill:#fff;}.cls-1,.cls-3,.cls-6{stroke:#312a1b;stroke-miterlimit:10;stroke-width:2px;}.cls-1{opacity:0.4;}.cls-2{fill:#f7f7f7;}.cls-3{fill:none;}.cls-4{opacity:0.73;}.cls-5{opacity:0.49;}</style></defs><title>Untitled-2</title><path class="cls-1" d="M72.09,36.4c0,1.63-.06,3.32-.2,5.06-2,25-23,32-36,31s-34-3-34-34c0-.19,0-.39,0-.58C1.24-2.5,38.39,2,38.39,2,59.32,2.43,72,14.57,72.09,36.4Z"/><path class="cls-2" d="M72.09,36.4C62.31,42.57,47.5,50.34,35.72,49.63s-25.33-7-33.84-11.75C1.24-2.5,38.39,2,38.39,2,59.32,2.43,72,14.57,72.09,36.4Z"/><path class="cls-3" d="M72.09,36.4c0,1.63-.06,3.32-.2,5.06-2,25-23,32-36,31s-34-3-34-34c0-.19,0-.39,0-.58C1.24-2.5,38.39,2,38.39,2,59.32,2.43,72,14.57,72.09,36.4Z"/><path class="cls-4" d="M39.14,57.08l15-11.62c2.67-2.67,1.46-6.83-2.62-9.5L39.61,28.89A2.69,2.69,0,0,0,35,30.79L29.85,53.38C29.85,55.53,35.69,59.38,39.14,57.08Z"/><path class="cls-5" d="M36.89,55.34l15.83-12c3.44-3.44,0-6.54-4.08-9.21L38.49,28.64a2.69,2.69,0,0,0-4.59,1.9l-4.26,21.8C29.64,54.49,33.44,57.64,36.89,55.34Z"/><path class="cls-6" d="M34.53,53.34l15.82-12a3.25,3.25,0,0,0,0-4.58L35,25.15a2.69,2.69,0,0,0-4.59,1.9V51.64A2.41,2.41,0,0,0,34.53,53.34Z"/></svg>