<?xml version="1.0" encoding="utf-8"?>
<!-- Generator: Adobe Illustrator 22.1.0, SVG Export Plug-In . SVG Version: 6.00 Build 0)  -->
<svg version="1.1" id="Layer_1" xmlns="http://www.w3.org/2000/svg" xmlns:xlink="http://www.w3.org/1999/xlink" x="0px" y="0px"
	 viewBox="0 0 93.4 93.4" style="enable-background:new 0 0 93.4 93.4;" xml:space="preserve">
<path d="M61.8,46.4l26.6-26.6c4.2-4.2,4.2-11,0-15.2l0,0c-4.2-4.2-11-4.2-15.2,0L46.6,31.2L20.1,4.7c-4.2-4.2-11-4.2-15.2,0l0,0
	c-4.2,4.2-4.2,11,0,15.2l26.6,26.6L4.9,73c-4.2,4.2-4.2,11,0,15.2s11,4.2,15.2,0l26.6-26.6l26.6,26.6c4.2,4.2,11,4.2,15.2,0
	s4.2-11,0-15.2L61.8,46.4z"/>
</svg>
