<?xml version="1.0" encoding="utf-8"?>
<!-- Generator: Adobe Illustrator 22.1.0, SVG Export Plug-In . SVG Version: 6.00 Build 0)  -->
<svg version="1.1" id="Layer_1" xmlns="http://www.w3.org/2000/svg" xmlns:xlink="http://www.w3.org/1999/xlink" x="0px" y="0px"
	 viewBox="0 0 52.4 45.2" style="enable-background:new 0 0 52.4 45.2;" xml:space="preserve">
<g>
	<path d="M26.2,43.5c-0.4,0-0.8-0.1-1.2-0.2c-0.2,0-0.3-0.1-0.4-0.1l-0.1,0c-0.2-0.1-0.4-0.1-0.6-0.2c-0.2-0.1-22.2-12-22.2-25.7
		c0-8.7,6-15.2,14-15.2c3.5,0,7.6,1.8,10.5,4.6C29.1,3.8,33.1,2,36.7,2c8,0,14,6.5,14,15.2c0,13.7-22,25.6-22.2,25.7
		c-0.2,0.1-0.4,0.2-0.6,0.2c0,0-0.1,0-0.1,0c-0.1,0.1-0.2,0.1-0.4,0.1C27,43.4,26.6,43.5,26.2,43.5z"/>
</g>
</svg>
