<?xml version="1.0" encoding="utf-8"?>
<!-- Generator: Adobe Illustrator 22.1.0, SVG Export Plug-In . SVG Version: 6.00 Build 0)  -->
<svg version="1.1" id="Layer_1" xmlns="http://www.w3.org/2000/svg" xmlns:xlink="http://www.w3.org/1999/xlink" x="0px" y="0px"
	 viewBox="0 0 102 85.2" style="enable-background:new 0 0 102 85.2;" xml:space="preserve">
<g>
	<path d="M91,31.5H11c-5.5,0-10,4.5-10,10v2c0,5.5,4.5,10,10,10h80c5.5,0,10-4.5,10-10v-2C101,36,96.5,31.5,91,31.5z"/>
	<path d="M91,61.5H11c-5.5,0-10,4.5-10,10v2c0,5.5,4.5,10,10,10h80c5.5,0,10-4.5,10-10v-2C101,66,96.5,61.5,91,61.5z"/>
	<path d="M91,1.5H11C5.5,1.5,1,6,1,11.5v2c0,5.5,4.5,10,10,10h80c5.5,0,10-4.5,10-10v-2C101,6,96.5,1.5,91,1.5z"/>
</g>
</svg>
