<?xml version="1.0" encoding="utf-8"?>
<!-- Generator: Adobe Illustrator 22.1.0, SVG Export Plug-In . SVG Version: 6.00 Build 0)  -->
<svg version="1.1" id="Layer_1" xmlns="http://www.w3.org/2000/svg" xmlns:xlink="http://www.w3.org/1999/xlink" x="0px" y="0px"
	 viewBox="0 0 59.3 90.3" style="enable-background:new 0 0 59.3 90.3;" xml:space="preserve">
<g>
	<path d="M0.7,24.7c0-31,58-33,58-1c0,19-19,18-23,36c-2,9-14,8-14-2c0-17,14-18,20-29c4-8-3-16-11-16c-17,0-11,19-22,19
		C4.7,31.7,0.7,28.7,0.7,24.7z M28.7,88.7c-12,0-11-18,0-18C40.7,70.7,40.7,88.7,28.7,88.7z"/>
</g>
</svg>
