<?xml version="1.0" encoding="utf-8"?>
<!-- Generator: Adobe Illustrator 22.1.0, SVG Export Plug-In . SVG Version: 6.00 Build 0)  -->
<svg version="1.1" id="Layer_1" xmlns="http://www.w3.org/2000/svg" xmlns:xlink="http://www.w3.org/1999/xlink" x="0px" y="0px"
	 viewBox="0 0 434 372.2" style="enable-background:new 0 0 434 372.2;" xml:space="preserve">
<g>
	<path d="M71,102.6v166.2H27.7c-7.5,0-13.7-6.1-13.7-13.7V116.3c0-7.5,6.1-13.7,13.7-13.7H71z"/>
</g>
<g>
	<path d="M257.7,36.7v298.1c0,14-15,22.8-27.2,16L96.4,275.8c-5.8-3.2-9.4-9.3-9.4-16V111.6c0-6.6,3.6-12.7,9.4-16l134.2-74.9
		C242.7,14,257.7,22.8,257.7,36.7z"/>
</g>
<g>
	<g>
		<path d="M403,204.8H296c-10.4,0-19-8.5-19-19v0c0-10.4,8.5-19,19-19h107c10.4,0,19,8.6,19,19v0C422,196.2,413.5,204.8,403,204.8z"
			/>
	</g>
</g>
</svg>
